<svg xmlns="http://www.w3.org/2000/svg" width="126" height="83" fill="none" xmlns:v="https://vecta.io/nano"><path fill-rule="evenodd" d="M38.838 46l7.384-13.813L30.078 0H17l21.838 46zm25.778 0L72 32.187 55.856 0H42.778l21.838 46z" fill="#002e6d"/><path d="M98.198 20.553a8.34 8.34 0 0 1 4.356 1.199 12 12 0 0 1 3.427 3.066c.957 1.249 1.708 2.634 2.226 4.105a12.81 12.81 0 0 1 .793 4.323c-.013 1.45-.226 2.892-.633 4.288a11.13 11.13 0 0 1-2.19 4.14 11.9 11.9 0 0 1-4.197 3.089 15.96 15.96 0 0 1-6.706 1.228H90c1.042-.509 1.989-1.182 2.8-1.993a12.99 12.99 0 0 0 2.19-2.912 15.24 15.24 0 0 0 1.432-3.649 16.98 16.98 0 0 0 .509-4.197c.058-2.747-.621-5.461-1.971-7.88-1.098-2.061-2.831-3.742-4.96-4.814a9.73 9.73 0 0 0 3.782-4.077 13.18 13.18 0 0 0 1.432-6.218 13.38 13.38 0 0 0-1.432-6.252C92.989 2.317 91.665.918 90 .003h3.871a16.52 16.52 0 0 1 5.369.794 10.94 10.94 0 0 1 3.847 2.176c1.006.902 1.788 2.013 2.285 3.249a10.55 10.55 0 0 1 .763 3.997c.013 1.354-.187 2.701-.592 3.997a9.94 9.94 0 0 1-1.716 3.249 8.29 8.29 0 0 1-2.729 2.204 7.92 7.92 0 0 1-3.676.885h.764.012zM87 0l-8 .063V13s4.347-11.112 8-13z" fill="#f9d753"/><g fill="#002e6d"><path d="M6.106 74.624h.053L10.495 60h2.092l4.307 14.624h.047L21.148 60H23l-5.086 17h-2.074l-4.33-14.595h-.047L7.131 77H5.086L0 60h1.852l4.254 14.624z"/><path fill-rule="evenodd" d="M34.554 73.393c.301-.76.452-1.572.446-2.391a6.31 6.31 0 0 0-.446-2.39 5.6 5.6 0 0 0-3.139-3.16c-.773-.307-1.597-.461-2.427-.452a6.29 6.29 0 0 0-2.403.452 5.48 5.48 0 0 0-1.9 1.257 5.64 5.64 0 0 0-1.239 1.903 6.63 6.63 0 0 0 0 4.781c.282.711.704 1.356 1.239 1.897a5.48 5.48 0 0 0 1.9 1.257 6.29 6.29 0 0 0 2.403.452c.83.009 1.654-.145 2.427-.452a5.61 5.61 0 0 0 3.139-3.154zm-1.593-4.188a5.27 5.27 0 0 1 .301 1.797h.006c-.003.61-.113 1.214-.324 1.785a4.56 4.56 0 0 1-.851 1.463c-.376.419-.836.752-1.349.975-.562.242-1.168.362-1.778.352a4.24 4.24 0 0 1-1.766-.352c-.509-.225-.965-.557-1.338-.975-.376-.426-.665-.923-.851-1.463-.402-1.161-.402-2.427 0-3.589a4.36 4.36 0 0 1 .851-1.462c.792-.887 1.925-1.38 3.104-1.351.618-.009 1.23.117 1.795.37.511.234.969.569 1.349.987a4.56 4.56 0 0 1 .851 1.462z"/><path d="M39.071 67.514c0-.459-.038-.873-.071-1.237h1.465l.071.961v.873h.043c.638-1.306 1.956-2.126 3.392-2.11h.544c.164.019.326.05.485.094l-.207 1.492a2.69 2.69 0 0 0-.452-.094 4.76 4.76 0 0 0-.632-.044 3.16 3.16 0 0 0-1.176.227c-.381.159-.718.412-.98.735a3.71 3.71 0 0 0-.681 1.26c-.187.594-.275 1.216-.261 1.84V77h-1.535v-8.359c.016-.293.011-.668-.005-1.127zm10.59 3.379h.076l5.3-5.028h2.397l-5.789 5.085L58 77h-2.444l-5.819-5.86h-.076V77H48V59h1.661v11.893z"/><path fill-rule="evenodd" d="M60.017 60h4.897a8.74 8.74 0 0 1 1.878.208c.604.122 1.182.357 1.705.694.51.336.933.794 1.235 1.335.336.647.5 1.375.475 2.11.013.853-.269 1.683-.794 2.341-.544.672-1.293 1.132-2.124 1.306v.046c1.001.101 1.937.556 2.65 1.289a4.08 4.08 0 0 1 1.056 2.959c.019 1.348-.593 2.623-1.643 3.422a5.77 5.77 0 0 1-1.94.954c-.83.234-1.688.347-2.549.335H60L60.017 60zm1.677 7.445h3.354c.41-.003.819-.051 1.219-.144a3.4 3.4 0 0 0 1.118-.491c.343-.236.626-.553.827-.925a2.97 2.97 0 0 0 .313-1.416c.047-.932-.398-1.816-1.163-2.312-.383-.249-.808-.424-1.252-.514-.504-.107-1.017-.159-1.532-.156h-2.901l.017 5.959zm3.108 8.063h-3.108l-.017-6.647h3.41c1.1-.071 2.193.218 3.125.826a2.93 2.93 0 0 1 1.118 2.509 2.92 2.92 0 0 1-.374 1.52 3.01 3.01 0 0 1-.984 1.035 4.32 4.32 0 0 1-1.436.578c-.57.119-1.151.179-1.733.179z"/><path d="M75.071 67.516c0-.459-.038-.874-.071-1.239h1.469l.071.962v.874h.044c.302-.628.771-1.157 1.354-1.526.608-.391 1.315-.594 2.035-.586h.544a3.22 3.22 0 0 1 .484.094l-.207 1.493a2.69 2.69 0 0 0-.451-.094c-.209-.029-.42-.043-.631-.044-.402 0-.801.077-1.175.227-.38.156-.716.405-.979.725a3.72 3.72 0 0 0-.68 1.261c-.187.595-.275 1.217-.261 1.842V77h-1.545v-8.356-1.128z"/><path d="M85.688 62.009c.207-.211.321-.52.311-.842.009-.323-.105-.634-.311-.847a.9.9 0 0 0-1.376 0c-.206.214-.321.525-.311.847-.01.321.104.631.311.842a.9.9 0 0 0 1.376 0zM84.292 77h1.416V65.564h-1.416V77zM100 71.015v-.364a6.8 6.8 0 0 0-.352-2.214 5.31 5.31 0 0 0-1.015-1.762 4.72 4.72 0 0 0-1.678-1.222c-.73-.312-1.516-.466-2.307-.452-.765-.006-1.522.148-2.226.452a5.39 5.39 0 0 0-1.794 1.257 5.74 5.74 0 0 0-1.2 1.903 6.44 6.44 0 0 0-.427 2.39c-.008.818.141 1.63.438 2.39a6.01 6.01 0 0 0 1.211 1.897c.518.548 1.144.972 1.834 1.257a5.86 5.86 0 0 0 2.307.452 6.16 6.16 0 0 0 2.601-.558 6.09 6.09 0 0 0 2.215-1.856l-1.223-.975a4.3 4.3 0 0 1-1.402 1.374 3.92 3.92 0 0 1-2.192.587 3.87 3.87 0 0 1-1.603-.329 4.18 4.18 0 0 1-1.292-.887 3.97 3.97 0 0 1-.859-1.321 4.41 4.41 0 0 1-.34-1.609h9.275a3.53 3.53 0 0 0 .029-.411zm-2.67-3.577c.642.738 1.002 1.686 1.015 2.672l-7.637-.018a3.88 3.88 0 0 1 .358-1.404 4.14 4.14 0 0 1 .836-1.175 3.91 3.91 0 0 1 1.223-.828 3.66 3.66 0 0 1 1.505-.305c1.008-.066 1.994.32 2.699 1.057zm7.818-.061h2.752l.03-1.326h-2.752v-2.82a6.44 6.44 0 0 1 .091-1.1 2.33 2.33 0 0 1 .325-.903 1.53 1.53 0 0 1 .674-.598 2.55 2.55 0 0 1 1.114-.214c.202-.001.404.016.602.051a4.96 4.96 0 0 1 .554.118l.295-1.41c-.228-.064-.462-.106-.698-.124a6.04 6.04 0 0 0-.699-.039c-1.126-.088-2.233.309-3.01 1.077-.694.843-1.04 1.893-.976 2.956v2.995H101v1.337h2.45V77h1.698v-9.623zM110.296 77H112V59.294h-1.704V77z" fill-rule="evenodd"/><path d="M120.68 75.479h.047L124.211 66H126l-5.622 14.138a5.94 5.94 0 0 1-1.289 2.075 3.06 3.06 0 0 1-2.254.78c-.495-.002-.989-.05-1.475-.145l.174-1.491c.387.133.794.199 1.203.197a1.75 1.75 0 0 0 1.33-.52c.372-.433.658-.934.842-1.474l.917-2.352L115 66h1.835l3.845 9.479z"/></g></svg>