<svg xmlns="http://www.w3.org/2000/svg" width="100" height="51" fill="none" xmlns:v="https://vecta.io/nano"><path fill-rule="evenodd" d="M28.123 0l23.822 51L60 35.687 42.389 0H28.123zM0 0l23.823 51 8.055-15.313L14.266 0H0z" fill="#fff"/><mask id="A" maskUnits="userSpaceOnUse" x="79" y="0" width="21" height="51" mask-type="alpha"><path fill-rule="evenodd" d="M79.257.301h20.373V51H79.257V.301z" fill="#fff"/></mask><g mask="url(#A)"><path fill-rule="evenodd" d="M88.047 22.947c1.679 0 3.237.439 4.667 1.318s2.658 2.005 3.679 3.38 1.817 2.884 2.385 4.529.852 3.234.852 4.766c0 1.487-.228 3.066-.682 4.732s-1.237 3.188-2.351 4.563-2.613 2.513-4.496 3.414S87.819 51 84.913 51h-5.656a11.13 11.13 0 0 0 2.999-2.197c.908-.924 1.692-1.995 2.351-3.211s1.169-2.557 1.533-4.022.545-3.008.545-4.631c0-3.289-.705-6.185-2.113-8.686s-3.179-4.27-5.315-5.306c1.68-.991 3.033-2.49 4.055-4.496s1.533-4.292 1.533-6.861-.511-4.867-1.533-6.895-2.374-3.492-4.055-4.394h4.157c2.18 0 4.098.294 5.757.879s3.032 1.386 4.123 2.4a9.75 9.75 0 0 1 2.453 3.583c.544 1.375.817 2.85.817 4.428s-.216 3.054-.647 4.428-1.045 2.568-1.84 3.583-1.771 1.825-2.929 2.434-2.464.912-3.918.912h.954-.136z" fill="#fff"/></g><path fill-rule="evenodd" d="M76.551.252l-9.13.067v14.196S72.386 2.325 76.551.252z" fill="#fff"/></svg>