<svg xmlns="http://www.w3.org/2000/svg" width="24" height="24" fill="none" xmlns:v="https://vecta.io/nano"><path fill-rule="evenodd" d="M10.888 9.822l4.313-4.409c.578-.591 1.527-.604 2.121-.029s.607 1.519.029 2.11l-.717-.693.717.693-4.37 4.468 4.37 4.468c.578.591.565 1.535-.029 2.11s-1.543.562-2.121-.029l-4.312-4.409-4.312 4.409-.717-.693m5.029-7.994L6.575 5.413c-.578-.591-1.527-.604-2.121-.029s-.607 1.519-.029 2.11l4.371 4.468-4.37 4.468c-.578.591-.565 1.535.029 2.11s1.543.562 2.121-.029l-.717-.693" fill="#fff"/></svg>