<svg xmlns="http://www.w3.org/2000/svg" width="24" height="22" fill="none" xmlns:v="https://vecta.io/nano"><path d="M1.443 12.745a1.66 1.66 0 0 0 .297.023h16.932l-.369.178c-.361.177-.689.418-.97.712l-4.748 4.921c-.625.619-.73 1.614-.249 2.358.56.793 1.635.965 2.4.385a1.74 1.74 0 0 0 .176-.153l8.586-8.899a1.83 1.83 0 0 0 .001-2.517L14.91.852c-.671-.694-1.759-.693-2.428.004-.053.055-.102.113-.147.174-.481.744-.376 1.74.249 2.358l4.74 4.93a3.44 3.44 0 0 0 .859.65l.515.24H1.834C.957 9.174.187 9.81.022 10.703c-.152.97.484 1.884 1.42 2.042z" fill="#414141"/></svg>