<svg xmlns="http://www.w3.org/2000/svg" width="28" height="28" fill="#8a8a8a" xmlns:v="https://vecta.io/nano"><path d="M20.401 22.002a3.2 3.2 0 0 1-3.2 3.2h-11.2a3.2 3.2 0 0 1-3.2-3.2v-11.2a3.2 3.2 0 0 1 3.2-3.2v1.6a1.6 1.6 0 0 0-1.6 1.6v11.2a1.6 1.6 0 0 0 1.6 1.6h11.2a1.6 1.6 0 0 0 1.6-1.6h1.6zM10.802 4.401a1.6 1.6 0 0 0-1.6 1.6v11.2a1.6 1.6 0 0 0 1.6 1.6h11.2a1.6 1.6 0 0 0 1.6-1.6v-11.2a1.6 1.6 0 0 0-1.6-1.6h-11.2zm0-1.6h11.2a3.2 3.2 0 0 1 3.2 3.2v11.2a3.2 3.2 0 0 1-3.2 3.2h-11.2a3.2 3.2 0 0 1-3.2-3.2v-11.2a3.2 3.2 0 0 1 3.2-3.2z"/></svg>