<svg xmlns="http://www.w3.org/2000/svg" width="18" height="18" fill="none" xmlns:v="https://vecta.io/nano"><path d="M1.147 16.529l-.707.707h0l.707-.707zm0-.707l-.707-.707h0l.707.707zm.707.707l.707.707h0l-.707-.707zm6.983-6.983l.707-.707-.707-.707-.707.707.707.707zm6.985 6.985l.707-.707-.707.707zm.707-.707l-.707.707.707-.707zM9.544 8.839l-.707-.707-.707.707.707.707.707-.707zm6.985-6.985l-.707-.707h0l.707.707zM8.837 8.132l-.707.707.707.707.707-.707-.707-.707zM1.854 1.148l.707-.707-.707.707zm-.707 0l.707.707h0l-.707-.707zm0 .707l.707-.707h0l-.707.707zM8.13 8.839l.707.707.707-.707-.707-.707-.707.707zm-6.276 6.983a.5.5 0 0 1 0 .707L.44 15.115a1.5 1.5 0 0 0 0 2.121l1.414-1.414zm-.707 0a.5.5 0 0 1 .707 0L.44 17.236a1.5 1.5 0 0 0 2.121 0l-1.414-1.414zM8.13 8.839l-6.983 6.983 1.414 1.414 6.983-6.983L8.13 8.839zm8.399 6.985L9.544 8.839 8.13 10.253l6.985 6.985 1.414-1.414zm-.707 0a.5.5 0 0 1 .707 0l-1.414 1.414a1.5 1.5 0 0 0 2.121 0l-1.414-1.414zm0 .707a.5.5 0 0 1 0-.707l1.414 1.414a1.5 1.5 0 0 0 0-2.121l-1.414 1.414zM8.837 9.546l6.985 6.985 1.414-1.414-6.985-6.985-1.414 1.414zm6.985-8.399L8.837 8.132l1.414 1.414 6.985-6.985-1.414-1.414zm0 .707a.5.5 0 0 1 0-.707l1.414 1.414a1.5 1.5 0 0 0 0-2.121l-1.414 1.414zm.707 0a.5.5 0 0 1-.707 0L17.236.439a1.5 1.5 0 0 0-2.121 0l1.414 1.414zM9.544 8.839l6.985-6.985L15.115.439 8.13 7.425l1.414 1.414zM1.146 1.855L8.13 8.839l1.414-1.414L2.561.441 1.146 1.855zm.707 0a.5.5 0 0 1-.707 0L2.561.441a1.5 1.5 0 0 0-2.121 0l1.414 1.414zm0-.707a.5.5 0 0 1 0 .707L.439.441a1.5 1.5 0 0 0 0 2.121l1.414-1.414zm6.983 6.983L1.854 1.148.439 2.562l6.983 6.983 1.414-1.414zm-6.983 8.397l6.983-6.983-1.414-1.414L.44 15.115l1.414 1.414z" fill="#393939"/></svg>