<svg xmlns="http://www.w3.org/2000/svg" width="20" height="20" fill="none" xmlns:v="https://vecta.io/nano"><path d="M17.448 3.361h-3.4V2.066c0-.089-.073-.162-.162-.162h-1.133c-.089 0-.162.073-.162.162v1.295H7.41V2.066c0-.089-.073-.162-.162-.162H6.114c-.089 0-.162.073-.162.162v1.295h-3.4c-.358 0-.648.289-.648.648v13.438c0 .358.289.648.648.648h14.895c.358 0 .648-.289.648-.648V4.009c0-.358-.289-.648-.648-.648zm-.809 13.276H3.362v-7.69h13.276v7.69zM3.362 7.571V4.819h2.59v.971c0 .089.073.162.162.162h1.133c.089 0 .162-.073.162-.162v-.971h5.181v.971c0 .089.073.162.162.162h1.133c.089 0 .162-.073.162-.162v-.971h2.591v2.752H3.362z" fill="#002e6d"/></svg>