<svg width="18" height="18" viewBox="0 0 18 18" fill="none" xmlns="http://www.w3.org/2000/svg">
<path d="M16.9898 15.9533C17.5469 15.9533 18 16.4123 18 16.9766C18 17.5421 17.5469 18 16.9898 18H11.2797C10.7226 18 10.2695 17.5421 10.2695 16.9766C10.2695 16.4123 10.7226 15.9533 11.2797 15.9533H16.9898ZM13.0299 0.699064L14.5049 1.87078C15.1097 2.34377 15.513 2.96726 15.6509 3.62299C15.8101 4.3443 15.6403 5.0527 15.1628 5.66544L6.3764 17.0279C5.97316 17.5439 5.37891 17.8341 4.74222 17.8449L1.24039 17.8879C1.04939 17.8879 0.890213 17.7589 0.847767 17.5761L0.0518984 14.1255C-0.086052 13.4912 0.0518984 12.8355 0.455138 12.3303L6.68413 4.26797C6.79025 4.13898 6.98126 4.11855 7.1086 4.21422L9.72966 6.29967C9.89944 6.43942 10.1329 6.51467 10.377 6.48242C10.8969 6.41792 11.2471 5.94493 11.1941 5.43969C11.1622 5.1817 11.0349 4.96671 10.8651 4.80546C10.812 4.76246 8.31832 2.76301 8.31832 2.76301C8.15914 2.63401 8.12731 2.39752 8.25465 2.23735L9.24152 0.957057C10.1541 -0.214663 11.7459 -0.322161 13.0299 0.699064Z" fill="#545454"/>
</svg>
