<svg xmlns="http://www.w3.org/2000/svg" width="28" height="28" fill="none" xmlns:v="https://vecta.io/nano"><path fill-rule="evenodd" d="M24.21 23.846c.483 0 .875.392.875.875s-.392.875-.875.875h-8.462c-.483 0-.875-.392-.875-.875s.392-.875.875-.875h8.462zM18.803 4.263l2.01 1.562c.709.422 1.264 1.177 1.474 2.071a3.34 3.34 0 0 1-.429 2.568l-.018.025-.009.012-2.155 2.709a.7.7 0 0 1-.054.081c-.029.038-.061.073-.095.105l-.374.47-.266.333-1.972 2.468-.396.496-5.845 7.314c-.536.667-1.338 1.056-2.2 1.066l-4.245.054h-.012c-.405 0-.757-.278-.852-.673l-.955-4.05c-.197-.839-.001-1.704.537-2.376l10.99-13.746a3.51 3.51 0 0 1 4.867-.489zM12.71 9.085L4.312 19.59c-.199.25-.273.572-.199.881l.794 3.366 3.545-.044c.337-.003.649-.154.855-.411l3.774-4.722.486-.608.487-.609 3.627-4.54-4.971-3.817zm2.586-3.232l-1.492 1.865 4.971 3.816 1.644-2.063c.191-.31.266-.749.166-1.171-.103-.433-.372-.8-.761-1.035a382.76 382.76 0 0 1-2.109-1.631c-.74-.593-1.819-.49-2.419.219z" fill="#8a8a8a"/></svg>