<svg xmlns="http://www.w3.org/2000/svg" width="24" height="24" fill="none" xmlns:v="https://vecta.io/nano"><path fill-rule="evenodd" d="M20.751 20.44a.75.75 0 1 1 0 1.5h-7.253a.75.75 0 1 1 0-1.5h7.253zM16.116 3.654l1.723 1.339c.608.362 1.083 1.009 1.263 1.775a2.86 2.86 0 0 1-.368 2.201l-.015.022-.008.01-1.847 2.322a.59.59 0 0 1-.046.069.75.75 0 0 1-.081.09l-.321.402-.228.286-1.69 2.116-.34.425-5.01 6.269c-.459.572-1.147.905-1.886.914l-3.639.046h-.01a.75.75 0 0 1-.73-.577l-.819-3.471a2.37 2.37 0 0 1 .46-2.037l9.42-11.782a3.01 3.01 0 0 1 4.172-.419zm-5.222 4.133l-7.199 9.005a.88.88 0 0 0-.171.755l.681 2.885 3.039-.038a.95.95 0 0 0 .733-.352l3.235-4.048.417-.521.417-.522 3.109-3.891-4.261-3.272zm2.216-2.77l-1.279 1.598 4.261 3.271 1.41-1.768a1.36 1.36 0 0 0 .142-1.004 1.41 1.41 0 0 0-.652-.887 328.9 328.9 0 0 1-1.808-1.398c-.634-.508-1.559-.42-2.073.188z" fill="#002e6d"/></svg>