<svg width="26" height="26" viewBox="0 0 26 26" fill="none" xmlns="http://www.w3.org/2000/svg">
<path fill-rule="evenodd" clip-rule="evenodd" d="M22.967 0H3.03301C1.35837 0.00106158 0.00106158 1.35837 0 3.03301V22.967C0.00106158 24.6416 1.35837 25.9989 3.03301 26H22.967C24.6416 25.9989 25.9989 24.6416 26 22.967V3.03301C25.9989 1.35837 24.6416 0.00106158 22.967 0ZM5.64648 21.2715C4.90182 21.2715 4.23059 20.8226 3.94616 20.1344C3.66174 19.4462 3.8202 18.6544 4.34759 18.1287C4.87497 17.603 5.66726 17.447 6.35456 17.7336C7.04187 18.0202 7.48864 18.6928 7.48631 19.4375C7.48313 20.4506 6.66151 21.2704 5.64841 21.2715H5.64648ZM3.80859 13C3.80859 14.015 4.63144 14.8379 5.64648 14.8379H5.64841C6.66226 14.8358 7.48332 14.0139 7.48438 13C7.48438 11.985 6.66153 11.1621 5.64648 11.1621C4.63144 11.1621 3.80859 11.985 3.80859 13ZM5.64648 8.40429C4.63144 8.40429 3.80859 7.58144 3.80859 6.5664C3.80859 5.55135 4.63144 4.7285 5.64648 4.7285C6.66153 4.7285 7.48438 5.55135 7.48438 6.5664C7.48489 7.05399 7.29142 7.52177 6.94664 7.86655C6.60185 8.21133 6.13408 8.4048 5.64648 8.40429ZM11.1621 20.3516H21.2696H21.2715C21.7627 20.3291 22.1493 19.9243 22.1493 19.4326C22.1493 18.9409 21.7627 18.5362 21.2715 18.5137H11.1621C10.6709 18.5362 10.2843 18.9409 10.2843 19.4326C10.2843 19.9243 10.6709 20.3291 11.1621 20.3516ZM21.2696 13.918H11.1621C10.6709 13.8955 10.2843 13.4907 10.2843 12.999C10.2843 12.5073 10.6709 12.1026 11.1621 12.0801H21.2715C21.7627 12.1026 22.1493 12.5073 22.1493 12.999C22.1493 13.4907 21.7627 13.8955 21.2715 13.918H21.2696ZM11.1621 7.48631H21.2696H21.2715C21.7627 7.46382 22.1493 7.05905 22.1493 6.56736C22.1493 6.07566 21.7627 5.67089 21.2715 5.64841H11.1621C10.6709 5.67089 10.2843 6.07566 10.2843 6.56736C10.2843 7.05905 10.6709 7.46382 11.1621 7.48631Z" fill="white"/>
</svg>
