<svg width="411" height="250" viewBox="0 0 411 250" fill="none" xmlns="http://www.w3.org/2000/svg">
<path d="M365.718 169.146L358.418 169.302L354.715 169.363C353.475 169.39 352.235 169.385 350.995 169.39H350.75V169.14L350.723 162.919V162.641H351.001L358.362 162.674C360.814 162.674 363.272 162.735 365.724 162.763H365.879V162.913C365.868 163.969 365.829 165.02 365.807 166.054L365.718 169.146ZM365.718 169.146L365.64 166.004C365.618 164.97 365.579 163.947 365.568 162.924L365.718 163.074C363.266 163.102 360.808 163.163 358.357 163.163L350.995 163.197L351.273 162.919L351.245 169.14L350.995 168.89C352.207 168.901 353.419 168.896 354.637 168.923L358.295 168.985L365.718 169.146Z" fill="#EBEBEB"/>
<path d="M357.505 176.99L350.205 177.145L346.502 177.206C345.262 177.234 344.022 177.229 342.782 177.234H342.538V176.984L342.51 170.762V170.484H342.788L350.149 170.518C352.601 170.518 355.059 170.579 357.511 170.607H357.666V170.757C357.655 171.813 357.616 172.864 357.594 173.898L357.505 176.99ZM357.505 176.99L357.427 173.848C357.399 172.814 357.366 171.785 357.355 170.768L357.505 170.918C355.053 170.946 352.596 171.007 350.144 171.007L342.782 171.04L343.06 170.762L343.032 176.984L342.782 176.734C343.994 176.745 345.206 176.739 346.424 176.762L350.082 176.823L357.505 176.99Z" fill="#EBEBEB"/>
<path d="M60.0051 169.146L52.7048 169.302L49.0018 169.363C47.762 169.39 46.5221 169.385 45.2822 169.39H45.0376V169.14L45.0098 162.919V162.641H45.2878L52.6492 162.674C55.1012 162.674 57.5587 162.735 60.0106 162.763H60.1663V162.913C60.1552 163.969 60.1163 165.02 60.094 166.054L60.0051 169.146ZM60.0051 169.146L59.9272 166.004C59.905 164.97 59.8661 163.947 59.855 162.924L60.0051 163.074C57.5531 163.102 55.0956 163.163 52.6436 163.163L45.2822 163.197L45.5602 162.919L45.5324 169.14L45.2822 168.89C46.4943 168.901 47.7064 168.896 48.924 168.923L52.5825 168.985L60.0051 169.146Z" fill="#EBEBEB"/>
<path d="M51.7941 176.99L44.4939 177.145L40.7909 177.206C39.551 177.234 38.3111 177.229 37.0713 177.234H36.8266V176.984L36.7988 170.762V170.484H37.0768L44.4383 170.518C46.8902 170.518 49.3477 170.579 51.7997 170.607H51.9554V170.757C51.9443 171.813 51.9053 172.864 51.8831 173.898L51.7941 176.99ZM51.7941 176.99L51.7163 173.848C51.6885 172.814 51.6551 171.785 51.644 170.768L51.7941 170.918C49.3422 170.946 46.8847 171.007 44.4327 171.007L37.0713 171.04L37.3493 170.762L37.3215 176.984L37.0713 176.734C38.2833 176.745 39.4954 176.739 40.7131 176.762L44.3715 176.823L51.7941 176.99Z" fill="#EBEBEB"/>
<path d="M373.929 176.99L366.634 177.145L362.931 177.206C361.691 177.234 360.451 177.229 359.206 177.234H358.961V176.984L358.934 170.762V170.484H359.212L366.573 170.518C369.025 170.518 371.482 170.579 373.934 170.607H374.09V170.757C374.079 171.813 374.04 172.864 374.018 173.898L373.929 176.99ZM373.929 176.99L373.851 173.848C373.829 172.814 373.79 171.785 373.779 170.768L373.929 170.918C371.477 170.946 369.019 171.007 366.567 171.007L359.206 171.04L359.484 170.762L359.456 176.984L359.206 176.734C360.418 176.745 361.63 176.739 362.848 176.762L366.506 176.823L373.929 176.99Z" fill="#EBEBEB"/>
<path d="M260.372 76.3763L253.072 76.532L249.369 76.5931C248.129 76.6209 246.889 76.6154 245.644 76.6209H245.399V76.3707L245.371 70.1491V69.8711H245.649L253.011 69.9045C255.463 69.9045 257.92 69.9656 260.372 69.9934H260.528V70.1435C260.517 71.1999 260.478 72.2508 260.455 73.2849L260.372 76.3763ZM260.372 76.3763L260.294 73.2349C260.272 72.2007 260.233 71.1777 260.222 70.1547L260.372 70.3048C257.92 70.3326 255.463 70.3937 253.011 70.3937L245.649 70.4271L245.927 70.1491L245.899 76.3707L245.649 76.1205C246.861 76.1316 248.073 76.1261 249.291 76.1539L252.949 76.215L260.372 76.3763Z" fill="#EBEBEB"/>
<path d="M252.159 84.2239L244.859 84.3796L241.156 84.4408C239.916 84.4686 238.676 84.463 237.436 84.4686H237.192V84.2184L237.164 77.9967V77.7188H237.442L244.804 77.7521C247.255 77.7521 249.713 77.8133 252.165 77.8411H252.321V77.9912C252.31 79.0476 252.271 80.0984 252.248 81.1326L252.159 84.2239ZM252.159 84.2239L252.082 81.0825C252.059 80.0484 252.02 79.0198 252.009 78.0023L252.159 78.1524C249.707 78.1802 247.25 78.2414 244.798 78.2414L237.436 78.2747L237.714 77.9967L237.687 84.2184L237.436 83.9682C238.649 83.9793 239.861 83.9737 241.078 83.996L244.737 84.0571L252.159 84.2239Z" fill="#EBEBEB"/>
<path d="M268.583 84.2239L261.283 84.3796L257.58 84.4408C256.34 84.4686 255.1 84.463 253.86 84.4686H253.616V84.2184L253.588 77.9967V77.7188H253.866L261.227 77.7521C263.679 77.7521 266.137 77.8133 268.589 77.8411H268.745V77.9912C268.733 79.0476 268.694 80.0984 268.672 81.1326L268.583 84.2239ZM268.583 84.2239L268.505 81.0825C268.483 80.0484 268.444 79.0198 268.433 78.0023L268.583 78.1524C266.131 78.1802 263.674 78.2414 261.222 78.2414L253.86 78.2747L254.138 77.9967L254.111 84.2184L253.86 83.9682C255.072 83.9793 256.284 83.9737 257.497 83.996L261.155 84.0571L268.583 84.2239Z" fill="#EBEBEB"/>
<path d="M80.2163 136.283L72.9216 136.438L69.2186 136.499C67.9788 136.527 66.7389 136.522 65.499 136.527H65.2544V136.277L65.2266 130.055V129.777H65.5046L72.866 129.811C75.318 129.811 77.7755 129.872 80.2275 129.9H80.3831V130.05C80.372 131.106 80.3331 132.157 80.3109 133.191L80.2163 136.283ZM80.2163 136.283L80.1385 133.141C80.1107 132.107 80.0773 131.078 80.0662 130.061L80.2163 130.211C77.7644 130.239 75.3068 130.3 72.8549 130.3L65.4934 130.333L65.7714 130.055L65.7436 136.277L65.4934 136.027C66.7055 136.038 67.9176 136.032 69.1352 136.055L72.7937 136.116L80.2163 136.283Z" fill="#EBEBEB"/>
<path d="M147.864 193.078L140.564 193.233L136.861 193.295C135.621 193.322 134.381 193.317 133.142 193.328H132.897V193.078L132.869 186.856V186.578H133.147L140.509 186.611C142.961 186.611 145.418 186.673 147.87 186.7H148.026V186.851C148.015 187.907 147.976 188.958 147.953 189.992L147.864 193.078ZM147.864 193.078L147.787 189.936C147.764 188.902 147.725 187.874 147.714 186.856L147.864 187.006C145.413 187.034 142.955 187.095 140.503 187.095L133.142 187.129L133.42 186.851L133.392 193.072L133.142 192.822C134.354 192.833 135.566 192.828 136.783 192.85L140.442 192.911L147.864 193.078Z" fill="#EBEBEB"/>
<path d="M364.866 34.6832L357.566 34.8389L353.863 34.9001C352.623 34.9279 351.383 34.9223 350.144 34.9334H349.899V34.6832L349.871 28.4616V28.1836H350.149L357.511 28.217C359.963 28.2225 362.42 28.2781 364.872 28.3059H365.028V28.456C365.017 29.5124 364.983 30.5633 364.955 31.5974L364.866 34.6832ZM364.866 34.6832L364.789 31.5418C364.761 30.5077 364.727 29.4846 364.716 28.4616L364.866 28.6117C362.414 28.6395 359.957 28.7007 357.505 28.7007L350.144 28.734L350.422 28.456L350.394 34.6777L350.144 34.4275C351.356 34.4386 352.568 34.433 353.785 34.4608L357.444 34.522L364.866 34.6832Z" fill="#EBEBEB"/>
<path d="M373.079 42.527L365.779 42.6827L362.076 42.7438C360.842 42.7716 359.596 42.7661 358.356 42.7772H358.112V42.527L358.084 36.3053V36.0273H358.362L365.723 36.0607C368.175 36.0607 370.633 36.1219 373.085 36.1497H373.241V36.2998C373.229 37.3562 373.19 38.407 373.168 39.4412L373.079 42.527ZM373.079 42.527L373.001 39.3856C372.979 38.3514 372.94 37.3284 372.929 36.3053L373.079 36.4555C370.627 36.4833 368.17 36.5444 365.718 36.5444L358.356 36.5778L358.634 36.2998L358.607 42.5214L358.356 42.2712C359.568 42.2823 360.781 42.2768 361.998 42.3046L365.657 42.3657L373.079 42.527Z" fill="#EBEBEB"/>
<path d="M51.7939 34.6871L44.4936 34.8428L40.7906 34.904C39.5507 34.9318 38.3108 34.9262 37.071 34.9373H36.8263V34.6871L36.793 28.4655V28.1875H37.071L44.4324 28.2209C46.8844 28.2209 49.3419 28.282 51.7939 28.3098H51.9495V28.4599C51.9384 29.5163 51.8995 30.5672 51.8772 31.6013L51.7939 34.6871ZM51.7939 34.6871L51.716 31.5457C51.6882 30.5116 51.6549 29.4885 51.6437 28.4655L51.7939 28.6156C49.3419 28.6434 46.8844 28.7046 44.4324 28.7046L37.071 28.7435L37.349 28.4655L37.3212 34.6871L37.071 34.4369C38.283 34.4481 39.4951 34.4425 40.7128 34.4703L44.3712 34.5315L51.7939 34.6871Z" fill="#EBEBEB"/>
<path d="M103.707 111.375H49.3359V212.495H103.707V111.375Z" fill="#EBEBEB"/>
<path d="M106.338 108.582H46.7012V111.373H106.338V108.582Z" fill="#DBDBDB"/>
<path d="M46.7011 108.582H27.9473V111.373H46.7011V108.582Z" fill="#EBEBEB"/>
<path d="M49.3363 111.375H30.916V212.495H49.3363V111.375Z" fill="#DBDBDB"/>
<path d="M97.7863 152.445H55.2578V176.42H97.7863V152.445Z" stroke="#C7C7C7" stroke-width="0.25" stroke-miterlimit="10"/>
<path d="M82.4727 159.422H74.166V164.198H82.4727V159.422Z" fill="#C7C7C7"/>
<path d="M80.0215 159.785H71.7148V163.838H80.0215V159.785Z" stroke="#C7C7C7" stroke-width="0.25" stroke-miterlimit="10"/>
<path d="M97.7863 182.734H55.2578V206.709H97.7863V182.734Z" stroke="#C7C7C7" stroke-width="0.25" stroke-miterlimit="10"/>
<path d="M82.4727 189.711H74.166V194.487H82.4727V189.711Z" fill="#C7C7C7"/>
<path d="M80.0215 190.074H71.7148V194.127H80.0215V190.074Z" stroke="#C7C7C7" stroke-width="0.25" stroke-miterlimit="10"/>
<path d="M97.7863 122.156H55.2578V146.131H97.7863V122.156Z" fill="#A6A6A6"/>
<path d="M91.7763 116.016H59.4004V139.484H91.7763V116.016Z" fill="#C7C7C7"/>
<path d="M80.3338 113.582H91.7763V116.017H79.6777L80.3338 113.582Z" fill="#C7C7C7"/>
<path d="M59.4844 139.482H91.8602L94.3567 117.965H61.9808L59.4844 139.482Z" fill="#A6A6A6"/>
<path d="M83.1755 115.734H94.6124L94.3567 117.964H82.2637L83.1755 115.734Z" fill="#A6A6A6"/>
<path d="M118.275 122.156H75.7461V146.131H118.275V122.156Z" fill="#EBEBEB" stroke="#C7C7C7" stroke-width="0.25" stroke-miterlimit="10"/>
<path d="M102.961 129.133H94.6543V133.909H102.961V129.133Z" fill="#C7C7C7"/>
<path d="M100.51 129.496H92.2031V133.549H100.51V129.496Z" stroke="#C7C7C7" stroke-width="0.25" stroke-miterlimit="10"/>
<path d="M75.6408 125.746H55.2578V146.129H75.6408V125.746Z" fill="#DBDBDB"/>
<path d="M111.381 25.3814V0" stroke="#C7C7C7" stroke-miterlimit="10"/>
<path d="M127.059 40.4957L125.803 43.2701H96.9574L95.6953 40.4957L107.977 32H114.783L127.059 40.4957Z" fill="#EBEBEB"/>
<path d="M115.634 23.8086L114.783 31.9985H107.978L107.127 23.8086H115.634Z" fill="#DBDBDB"/>
<path d="M127.059 40.5L125.797 43.2689H96.9519L95.6953 40.5H127.059Z" fill="#DBDBDB"/>
<path d="M174.125 25.3814V0" stroke="#C7C7C7" stroke-miterlimit="10"/>
<path d="M189.809 40.4957L188.547 43.2701H159.702L158.445 40.4957L170.727 32H177.527L189.809 40.4957Z" fill="#EBEBEB"/>
<path d="M178.383 23.8086L177.527 31.9985H170.727L169.871 23.8086H178.383Z" fill="#DBDBDB"/>
<path d="M189.809 40.5L188.547 43.2689H159.702L158.445 40.5H189.809Z" fill="#DBDBDB"/>
<path d="M236.875 25.3814V0" stroke="#C7C7C7" stroke-miterlimit="10"/>
<path d="M252.553 40.4957L251.297 43.2701H222.452L221.189 40.4957L233.471 32H240.277L252.553 40.4957Z" fill="#EBEBEB"/>
<path d="M241.128 23.8086L240.277 31.9985H233.472L232.621 23.8086H241.128Z" fill="#DBDBDB"/>
<path d="M252.553 40.5L251.291 43.2689H222.446L221.189 40.5H252.553Z" fill="#DBDBDB"/>
<path d="M299.619 25.3814V0" stroke="#C7C7C7" stroke-miterlimit="10"/>
<path d="M315.303 40.4957L314.041 43.2701H285.196L283.939 40.4957L296.221 32H303.021L315.303 40.4957Z" fill="#EBEBEB"/>
<path d="M303.872 23.8086L303.021 31.9985H296.221L295.365 23.8086H303.872Z" fill="#DBDBDB"/>
<path d="M315.303 40.5L314.041 43.2689H285.196L283.939 40.5H315.303Z" fill="#DBDBDB"/>
<path d="M27.1973 212.493L71.7718 212.359L116.346 212.309L205.501 212.215L294.655 212.309L339.23 212.359L383.805 212.493L339.23 212.626L294.655 212.676L205.501 212.771L116.346 212.676L71.7718 212.626L27.1973 212.493Z" fill="#263238"/>
<path d="M205.5 271C318.995 271 411 260.703 411 248C411 235.297 318.995 225 205.5 225C92.0055 225 0 235.297 0 248C0 260.703 92.0055 271 205.5 271Z" fill="#EBEBEB"/>
<path d="M75.3355 149.221C73.3339 147.258 70.7485 144.889 67.685 145.735C64.8049 146.53 63.704 149.671 63.1869 152.29C62.5253 155.665 62.0027 159.073 61.4689 162.47C60.9296 165.901 60.4181 169.337 59.9232 172.773C59.6452 174.713 59.3672 176.654 59.0948 178.594C58.9613 179.567 58.8223 180.535 58.6889 181.508C58.5555 182.458 58.3998 183.409 58.3442 184.371C58.3275 184.677 58.8057 184.721 58.8724 184.427C59.2449 182.809 59.395 181.124 59.6341 179.484C59.8732 177.832 60.1123 176.181 60.3513 174.524C60.8295 171.244 61.3299 167.963 61.8247 164.683C62.3196 161.403 62.8311 158.122 63.3537 154.847C63.7985 152.067 64.0098 148.615 66.4729 146.785C67.824 145.779 69.5476 145.768 71.0821 146.352C72.7057 146.969 74.0011 148.131 75.2688 149.282C75.3189 149.315 75.3745 149.26 75.3355 149.221Z" fill="#263238"/>
<path d="M72.5936 147.212C72.5936 147.212 68.5015 145.738 66.4832 148.724C64.4649 151.71 66.8779 159.305 85.5095 163.592C85.5095 163.592 85.0202 155.457 81.0281 146.75C77.0361 138.043 69.9193 141.34 72.5936 147.212Z" fill="#FFC727"/>
<path d="M84.4426 162.354C84.1868 161.825 83.8254 161.336 83.5029 160.841C83.1916 160.363 82.8746 159.885 82.5577 159.407C82.3186 159.051 82.074 158.695 81.8294 158.339C81.846 158.25 81.8516 158.161 81.8627 158.072C81.885 157.911 81.9072 157.75 81.9239 157.589C81.9684 157.238 82.0184 156.894 82.074 156.543C82.1296 156.193 82.1852 155.848 82.2519 155.504C82.3186 155.153 82.352 154.736 82.4966 154.408C82.5188 154.353 82.4243 154.325 82.4132 154.392C82.3909 154.597 82.302 154.809 82.2464 155.009C82.2019 155.165 82.163 155.32 82.124 155.481C82.0351 155.837 81.9461 156.188 81.8683 156.543C81.796 156.871 81.7348 157.199 81.6792 157.533C81.6514 157.694 81.6292 157.85 81.607 158.011C81.2734 157.539 80.9342 157.066 80.5895 156.61C79.5998 155.309 78.5545 154.052 77.4703 152.829C77.4759 152.818 77.487 152.813 77.487 152.796C77.5815 150.839 77.537 148.904 77.9707 146.975C77.9818 146.925 77.904 146.891 77.8929 146.947C77.487 148.754 77.0811 150.65 77.1979 152.518C76.8087 152.084 76.4195 151.656 76.0192 151.228C75.1129 150.255 74.1899 149.293 73.2447 148.353C73.2058 148.315 73.1446 148.37 73.1836 148.409C74.7515 150.099 76.2416 151.862 77.6983 153.652C76.5696 153.613 75.4187 153.697 74.29 153.78C73.0279 153.875 71.7713 154.036 70.5148 154.208C70.4592 154.214 70.4758 154.297 70.5314 154.292C71.7769 154.103 73.039 154.008 74.2956 153.952C75.5132 153.902 76.7197 153.958 77.9318 153.952C78.7158 154.925 79.4942 155.904 80.2559 156.894C80.2003 156.894 80.1447 156.894 80.0835 156.888C79.8 156.883 79.5108 156.877 79.2273 156.883C78.6602 156.894 78.093 156.933 77.5315 156.977C76.375 157.077 75.2241 157.238 74.0898 157.494C74.0342 157.505 74.0509 157.583 74.1065 157.578C75.2519 157.45 76.3972 157.344 77.5482 157.3C78.0986 157.277 78.649 157.283 79.1939 157.277C79.4775 157.277 79.7666 157.277 80.0502 157.277C80.2225 157.277 80.3782 157.3 80.5228 157.233C81.0232 157.883 81.5236 158.534 82.024 159.19C82.4187 159.713 82.8079 160.235 83.1916 160.763C83.5808 161.303 83.9366 161.898 84.3703 162.404C84.4036 162.437 84.4592 162.393 84.4426 162.354Z" fill="#263238"/>
<path d="M74.3793 151.45C73.7232 151.345 73.0449 151.356 72.3888 151.356C71.7216 151.356 71.06 151.378 70.3928 151.4C70.3316 151.4 70.3372 151.489 70.3984 151.484C71.0711 151.434 71.7439 151.423 72.4222 151.434C73.0727 151.445 73.7288 151.506 74.3793 151.489C74.396 151.478 74.4015 151.45 74.3793 151.45Z" fill="#263238"/>
<path d="M80.2279 152.953C80.3058 152.319 80.3836 151.679 80.517 151.051C80.5282 150.99 80.4447 150.973 80.4336 151.034C80.3391 151.663 80.2168 152.285 80.1223 152.908C80.0778 153.22 80.0333 153.536 79.9944 153.848C79.961 154.137 79.8943 154.448 79.9166 154.737C79.9221 154.793 80.0111 154.799 80.0278 154.743C80.1056 154.459 80.0945 154.148 80.1223 153.859C80.1556 153.553 80.189 153.253 80.2279 152.953Z" fill="#263238"/>
<path d="M78.9989 145.901C78.8377 146.519 78.6764 147.147 78.5597 147.781C78.5041 148.103 78.454 148.42 78.4096 148.743C78.3706 149.048 78.3095 149.371 78.3484 149.682C78.354 149.704 78.3873 149.71 78.3984 149.688C78.4874 149.399 78.5041 149.087 78.543 148.793C78.5819 148.481 78.632 148.175 78.6876 147.864C78.7988 147.214 78.9155 146.569 79.0823 145.929C79.0934 145.874 79.0156 145.846 78.9989 145.901Z" fill="#263238"/>
<path d="M54.7414 183.689C54.6413 182.516 54.5246 181.343 54.4022 180.175C54.1576 177.857 53.874 175.538 53.5627 173.225C53.2513 170.918 52.9566 168.61 52.5841 166.308C52.4118 165.258 52.2394 164.179 51.8724 163.167C51.5611 162.3 51.0384 161.516 50.1322 161.204C47.9415 160.448 46.4626 162.722 45.5785 164.329C45.5507 164.379 45.623 164.412 45.6508 164.368C46.179 163.606 47.6468 161.466 49.3093 161.566C50.4268 161.632 51.322 162.428 51.8613 165.213C53.2013 172.163 54.4078 186.269 54.5468 187.192C54.6191 187.681 54.9694 187.659 54.9694 187.136C54.9749 185.991 54.8415 184.834 54.7414 183.689Z" fill="#263238"/>
<path d="M46.1676 163.466C46.1676 163.466 48.0858 156.699 43.8491 160.085C36.799 165.718 36.5488 177.966 36.5488 177.966C36.5488 177.966 49.0811 170.688 50.6379 165.884C52.962 158.729 46.1676 163.466 46.1676 163.466Z" fill="#FFC727"/>
<path d="M48.5417 166.784C47.5575 166.984 46.5623 167.112 45.5671 167.256C45.0945 167.323 44.6274 167.39 44.1548 167.456C43.8379 167.501 43.5154 167.529 43.1985 167.568C44.1326 166.283 45.0722 164.999 45.9674 163.687C46.0007 163.637 45.9229 163.581 45.884 163.626C45.1389 164.382 44.4495 165.199 43.7879 166.044C43.6044 165.522 43.4153 164.999 43.2319 164.476C43.0206 163.87 42.7926 163.27 42.6369 162.641C42.6258 162.591 42.5424 162.614 42.5591 162.664C42.7315 163.286 42.8538 163.915 43.015 164.537C43.1763 165.138 43.3597 165.733 43.571 166.317C43.1095 166.912 42.6703 167.523 42.2422 168.14C42.0253 167.529 41.7585 166.939 41.5694 166.317C41.5527 166.267 41.4693 166.289 41.4916 166.339C41.714 167.023 41.8363 167.74 42.0476 168.429C41.7585 168.852 41.4749 169.269 41.1969 169.697C40.6909 170.481 40.2128 171.276 39.7457 172.077C39.6735 172.121 39.629 172.177 39.6345 172.266C38.845 173.634 38.0889 175.024 37.3438 176.43C37.316 176.48 37.3939 176.519 37.4161 176.469C38.1611 175.085 38.9896 173.734 39.8458 172.41C39.8458 172.41 39.8514 172.41 39.8569 172.41C39.9459 172.36 40.1516 172.355 40.2684 172.333C40.4129 172.305 40.5575 172.271 40.7021 172.238C41.0245 172.166 41.347 172.082 41.6695 172.005C42.3033 171.849 42.9316 171.699 43.5821 171.588C43.6377 171.576 43.6099 171.499 43.5599 171.504C42.8037 171.649 42.042 171.738 41.2747 171.821C40.9133 171.866 40.5519 171.91 40.1905 171.966C40.1739 171.966 40.1572 171.971 40.1405 171.971C40.5909 171.287 41.0468 170.609 41.5083 169.936C41.9642 169.275 42.4312 168.624 42.9038 167.974C43.3375 167.912 43.7712 167.796 44.1993 167.718C44.683 167.623 45.1667 167.529 45.656 167.434C46.629 167.245 47.5909 167.023 48.5695 166.862C48.6195 166.856 48.5973 166.773 48.5417 166.784Z" fill="#263238"/>
<path d="M41.0071 167.452C40.946 167.274 40.8959 167.09 40.8403 166.912C40.7236 166.54 40.6291 166.162 40.5512 165.778C40.5401 165.728 40.4567 165.75 40.4678 165.8C40.5512 166.184 40.6402 166.562 40.7291 166.946C40.8125 167.318 40.9126 167.713 41.0572 168.069C41.0905 168.158 41.2295 168.119 41.2017 168.024C41.1461 167.83 41.0739 167.641 41.0071 167.452Z" fill="#263238"/>
<path d="M49.8257 165.215C49.2531 165.298 48.6804 165.343 48.1021 165.393C47.5239 165.443 46.9568 165.526 46.3785 165.61C46.3452 165.615 46.3452 165.66 46.3785 165.66C46.9568 165.621 47.5295 165.576 48.1021 165.499C48.6748 165.426 49.2475 165.337 49.8257 165.298C49.8813 165.298 49.8758 165.21 49.8257 165.215Z" fill="#263238"/>
<path d="M63.9639 175.115C63.7415 170.133 63.4245 165.163 62.9241 160.198C62.6739 157.729 62.3959 155.26 62.0457 152.797C61.7065 150.39 61.2895 147.977 60.6167 145.636C60.1052 143.846 59.4325 142.044 58.2315 140.588C57.0472 139.153 55.3069 138.252 53.4165 138.486C51.237 138.753 49.4801 140.132 47.9622 141.622C46.2608 143.295 44.6985 145.125 43.1194 146.915C42.7191 147.371 42.3243 147.821 41.9296 148.283C41.8962 148.322 41.9574 148.383 41.9907 148.338C43.5309 146.565 45.1377 144.847 46.8113 143.201C48.3625 141.677 49.9582 140.015 52.1044 139.387C53.0996 139.098 54.1783 139.014 55.1791 139.314C55.9908 139.559 56.6969 140.037 57.2807 140.643C58.4873 141.9 59.1656 143.601 59.6493 145.252C60.9893 149.828 61.4674 154.632 61.9678 159.358C62.4738 164.162 62.8129 168.977 63.0576 173.803C63.3022 178.651 63.4913 183.505 63.9583 188.342C64.0139 188.937 64.0917 189.532 64.1696 190.127C64.2196 190.528 64.8423 190.528 64.809 190.111C64.4142 185.123 64.1863 180.119 63.9639 175.115Z" fill="#263238"/>
<path d="M47.696 142.169C47.696 142.169 50.5427 136.903 47.1789 135.219C43.8206 133.528 32.5672 146.088 29.2812 164.447C29.2812 164.447 47.4513 156.408 53.6174 148.401C59.789 140.384 52.7945 138.621 47.696 142.169Z" fill="#FFC727"/>
<path d="M50.3653 146.448C48.3248 146.454 46.2898 146.293 44.2437 146.309C44.6274 145.87 45.0055 145.431 45.3947 144.997C45.9284 144.397 46.54 143.807 46.9904 143.14C47.0182 143.096 46.957 143.04 46.9181 143.068C46.351 143.513 45.8673 144.097 45.3724 144.619C44.8609 145.164 44.3549 145.709 43.8434 146.254C43.065 147.099 42.2977 147.955 41.536 148.817C41.536 148.734 41.5305 148.65 41.5305 148.567C41.5305 148.211 41.5305 147.85 41.5305 147.494C41.536 146.799 41.5471 146.109 41.5527 145.414C41.5638 144.008 41.5638 142.601 41.6583 141.2C41.6639 141.144 41.5805 141.15 41.5749 141.2C41.4749 142.606 41.3303 144.008 41.2636 145.42C41.2302 146.115 41.2135 146.804 41.2024 147.499C41.1969 147.855 41.1913 148.217 41.1969 148.572C41.1969 148.767 41.1913 148.973 41.208 149.173C41.0912 149.306 40.9633 149.44 40.8466 149.573C39.2175 151.436 37.6663 153.36 36.1595 155.322C36.1595 155.217 36.1428 155.105 36.1317 155C36.1095 154.783 36.0872 154.566 36.0594 154.355C36.0094 153.888 35.9427 153.421 35.8704 152.954C35.8037 152.514 35.7369 152.081 35.6591 151.641C35.5757 151.152 35.4589 150.652 35.42 150.157C35.4145 150.096 35.3255 150.112 35.3366 150.168C35.4423 150.657 35.4589 151.169 35.509 151.664C35.5535 152.114 35.5924 152.564 35.6313 153.009C35.6702 153.454 35.7147 153.91 35.7592 154.36C35.7814 154.577 35.7981 154.794 35.8259 155.011C35.837 155.116 35.8481 155.228 35.8648 155.333C35.8815 155.478 35.9037 155.495 35.9538 155.589C35.6925 155.928 35.4311 156.262 35.1754 156.601C34.1468 157.963 33.1349 159.342 32.1229 160.721C32.0896 160.765 32.1507 160.821 32.1841 160.777C33.1404 159.526 34.1301 158.302 35.1253 157.085C35.8704 157.118 36.6377 157.062 37.3827 157.051C38.1722 157.04 38.9562 157.035 39.7457 157.029C39.8013 157.029 39.7957 156.946 39.7457 156.946C38.9562 156.957 38.1722 156.974 37.3827 156.974C36.6655 156.974 35.9315 156.94 35.2143 156.979C36.0928 155.912 36.9824 154.85 37.872 153.793C38.1945 153.41 38.5225 153.02 38.8505 152.637C39.1452 152.698 39.4621 152.67 39.7624 152.665C40.1182 152.665 40.4796 152.665 40.8355 152.665C41.5082 152.665 42.1754 152.648 42.8482 152.637C44.2326 152.614 45.6226 152.57 47.0071 152.564C47.0627 152.564 47.0571 152.481 47.0071 152.481C45.6171 152.464 44.2326 152.403 42.8426 152.37C42.1699 152.353 41.4971 152.331 40.8243 152.32C40.4685 152.314 40.1071 152.314 39.7513 152.309C39.5455 152.309 39.3398 152.292 39.1285 152.298C39.8903 151.391 40.652 150.485 41.4193 149.584C41.4359 149.573 41.4526 149.556 41.4637 149.534C42.2088 148.656 42.9538 147.777 43.7044 146.904C43.8101 146.788 43.9101 146.665 44.0158 146.549C46.1341 146.615 48.2469 146.476 50.3653 146.515C50.4209 146.532 50.4209 146.448 50.3653 146.448Z" fill="#263238"/>
<path d="M49.3194 150.059C49.1526 150.059 48.9913 150.059 48.8245 150.064C48.7745 150.064 48.7801 150.142 48.8245 150.142C48.9913 150.142 49.1526 150.142 49.3194 150.148C49.375 150.142 49.375 150.059 49.3194 150.059Z" fill="#263238"/>
<path d="M48.2198 150.062C47.5637 150.051 46.9132 150.04 46.2571 150.023C45.9291 150.012 45.6011 150.001 45.2786 149.99C44.9839 149.979 44.6503 149.934 44.3667 150.001C44.3334 150.006 44.3389 150.051 44.3667 150.062C44.6503 150.145 44.9894 150.123 45.2841 150.129C45.6122 150.134 45.9402 150.14 46.2627 150.145C46.9188 150.151 47.5693 150.156 48.2254 150.151C48.281 150.145 48.2754 150.062 48.2198 150.062Z" fill="#263238"/>
<path d="M42.509 156.194C41.1801 156.01 39.8346 155.821 38.4891 155.832C38.4724 155.832 38.4724 155.86 38.4891 155.86C39.8235 155.988 41.1634 156.06 42.4867 156.277C42.5423 156.283 42.5646 156.199 42.509 156.194Z" fill="#263238"/>
<path d="M37.0492 150.354C37.0381 150.237 37.0214 150.12 37.0047 150.003C36.9714 149.742 36.9269 149.481 36.888 149.214C36.8101 148.713 36.7212 148.218 36.6266 147.724C36.6155 147.679 36.5377 147.69 36.5433 147.735C36.6044 148.246 36.66 148.763 36.71 149.275C36.7323 149.525 36.7545 149.781 36.7768 150.031C36.799 150.259 36.7768 150.543 36.8768 150.748C36.9158 150.826 37.0325 150.793 37.0548 150.72C37.0881 150.604 37.0659 150.476 37.0492 150.354Z" fill="#263238"/>
<path d="M63.7867 135.408C63.1362 134.195 62.3077 132.6 60.6842 132.7C59.3442 132.783 58.7382 134.151 58.4546 135.28C57.5706 138.777 57.5094 142.463 57.3371 146.044C56.9701 153.617 56.6476 161.195 56.5976 168.779C56.5865 170.88 56.592 172.982 56.6087 175.084C56.6309 177.23 56.6198 179.382 56.7588 181.522C56.7699 181.722 57.0702 181.717 57.0757 181.517C57.0869 179.682 57.0201 177.847 57.0146 176.018C57.009 174.227 57.0201 172.437 57.0479 170.652C57.1035 167.027 57.2036 163.408 57.3371 159.783C57.4705 156.185 57.6262 152.582 57.7819 148.985C57.8597 147.184 57.932 145.388 58.0154 143.592C58.0932 141.852 58.1711 140.106 58.3712 138.371C58.4824 137.398 58.627 136.431 58.8271 135.474C58.9717 134.79 59.1774 134.056 59.6667 133.534C60.3061 132.844 61.2736 132.894 62.0353 133.361C62.8248 133.851 63.2974 134.657 63.7144 135.458C63.7366 135.502 63.8089 135.458 63.7867 135.408Z" fill="#263238"/>
<path d="M63.3476 134.83C63.3476 134.83 62.0132 130.115 64.9656 132.473C69.8751 136.392 70.053 144.927 70.053 144.927C70.053 144.927 61.3238 139.856 60.2396 136.515C58.6161 131.533 63.3476 134.83 63.3476 134.83Z" fill="#FFC727"/>
<path d="M68.2062 141.431C68.1284 141.303 68.0394 141.175 67.956 141.042C67.9783 140.914 67.956 140.764 67.956 140.641C67.956 140.441 67.9505 140.235 67.956 140.035C67.9671 139.635 67.9783 139.24 68.0005 138.84C68.0005 138.784 67.9171 138.79 67.9171 138.84C67.8949 139.229 67.8782 139.618 67.8726 140.013C67.8671 140.208 67.8559 140.402 67.8504 140.597C67.8504 140.675 67.8393 140.758 67.8337 140.847C67.489 140.313 67.1387 139.791 66.7773 139.274C66.6717 139.123 66.5605 138.979 66.4548 138.829C66.377 138.323 66.4215 137.795 66.427 137.289C66.4326 136.744 66.4437 136.193 66.4604 135.648C66.4604 135.593 66.377 135.598 66.377 135.648C66.3603 136.216 66.3325 136.788 66.3047 137.355C66.2825 137.761 66.2491 138.167 66.2713 138.573C65.4262 137.428 64.5366 136.321 63.6303 135.22C63.6025 135.181 63.5358 135.237 63.5636 135.27C64.1252 135.982 64.6645 136.71 65.1871 137.444C64.1585 137.205 63.1133 137.066 62.0735 136.916C62.0179 136.911 62.0013 136.988 62.0513 137C63.1577 137.166 64.2419 137.444 65.3317 137.683C65.3428 137.683 65.3428 137.678 65.3539 137.678C65.7709 138.267 66.1879 138.857 66.5994 139.451C66.7662 139.691 66.9274 139.941 67.0942 140.18C67.0775 140.18 67.0609 140.174 67.0497 140.174C66.9385 140.158 66.8218 140.141 66.7106 140.13C66.4715 140.102 66.2269 140.08 65.9822 140.063C65.4818 140.024 64.9759 139.996 64.4699 139.969C64.4143 139.969 64.4199 140.052 64.4699 140.052C64.9647 140.063 65.4596 140.102 65.9544 140.152C66.2157 140.18 66.4771 140.219 66.7328 140.247C66.844 140.258 66.9608 140.274 67.072 140.285C67.1053 140.291 67.1387 140.297 67.1721 140.302C67.4501 140.714 67.7336 141.125 68.0116 141.536C68.5065 142.265 68.9457 143.049 69.4683 143.749C69.5017 143.794 69.5573 143.755 69.5351 143.705C69.1737 142.932 68.6677 142.176 68.2062 141.431Z" fill="#263238"/>
<path d="M66.0332 136.11C66.0332 135.927 66.0388 135.743 66.0388 135.56C66.0388 135.176 66.0332 134.787 66.0832 134.403C66.0944 134.342 65.9998 134.331 65.9998 134.392C65.9998 134.776 65.9554 135.154 65.9387 135.538C65.9276 135.727 65.9276 135.921 65.9276 136.11C65.9276 136.199 65.9276 136.288 65.9276 136.377C65.9276 136.466 65.9164 136.566 65.9498 136.65C65.9609 136.683 66.011 136.683 66.0221 136.65C66.0499 136.572 66.0332 136.477 66.0332 136.399C66.0388 136.299 66.0332 136.205 66.0332 136.11Z" fill="#263238"/>
<path d="M64.9544 138.063C64.6319 138.008 64.2983 137.991 63.9703 137.963C63.6089 137.93 63.2531 137.902 62.8917 137.852C62.8305 137.846 62.8194 137.93 62.8805 137.935C63.57 137.98 64.2539 138.102 64.9433 138.124C64.9878 138.13 64.9933 138.069 64.9544 138.063Z" fill="#263238"/>
<path d="M67.7001 138.09C67.7279 138.123 67.7112 138.229 67.7112 138.273V138.423C67.7112 138.534 67.7112 138.646 67.7112 138.751C67.7112 138.862 67.7112 138.974 67.7112 139.079C67.7112 139.168 67.689 139.285 67.7279 139.368C67.7334 139.38 67.7557 139.38 67.7612 139.368C67.7835 139.324 67.7779 139.279 67.7779 139.229C67.7779 139.179 67.7779 139.129 67.7779 139.079C67.7779 138.968 67.7779 138.857 67.7779 138.751C67.7779 138.64 67.7779 138.529 67.7779 138.423V138.273C67.7779 138.229 67.7612 138.129 67.789 138.09C67.8224 138.012 67.6389 138.012 67.7001 138.09Z" fill="#263238"/>
<path d="M63.9872 160.547C62.1524 159.168 60.5011 157.189 58.0324 157.089C55.9919 157.011 54.5686 158.545 53.7512 160.252C53.3231 161.153 53.0229 162.109 52.7504 163.066C52.3835 164.356 52.0332 165.651 51.7107 166.952C51.0713 169.51 50.5209 172.095 50.0761 174.697C49.8259 176.148 49.5979 177.605 49.4144 179.062C49.231 180.535 48.9863 182.048 48.9863 183.532C48.9863 183.788 49.3922 183.838 49.4422 183.582C49.6924 182.359 49.7925 181.102 49.976 179.868C50.1595 178.628 50.343 177.388 50.5542 176.148C50.9768 173.674 51.4605 171.211 52.0165 168.765C52.5447 166.457 53.0618 164.111 53.8068 161.859C54.3406 160.247 55.1969 158.368 56.9371 157.784C59.5893 156.9 61.9912 159.146 63.9316 160.603C63.9705 160.642 64.0317 160.58 63.9872 160.547Z" fill="#263238"/>
<path d="M62.0865 159.231C62.0865 159.231 60.3962 154.4 62.8426 153.449C66.5122 152.031 76.1144 162.845 74.2351 179.414C74.2351 179.414 66.818 175.327 61.3359 170.729C55.8593 166.131 54.4582 160.126 56.8712 158.575C59.2842 157.024 62.0865 159.231 62.0865 159.231Z" fill="#FFC727"/>
<path d="M73.1277 175.869C72.9109 175.285 72.5384 174.74 72.2381 174.195C71.9268 173.628 71.6099 173.061 71.2818 172.505C70.6424 171.415 70.0086 170.32 69.3581 169.241C69.2524 169.063 69.1412 168.891 69.0356 168.718C69.0523 168.652 69.0634 168.591 69.0745 168.524C69.1079 168.363 69.1468 168.207 69.1857 168.046C69.2691 167.684 69.3303 167.323 69.397 166.961C69.5304 166.25 69.6527 165.533 69.8418 164.838C69.8585 164.787 69.7695 164.771 69.7584 164.821C69.6083 165.533 69.3859 166.228 69.1746 166.923C69.0689 167.262 68.9633 167.606 68.8688 167.951C68.8354 168.068 68.8076 168.185 68.7743 168.307C67.9847 167.011 67.1841 165.727 66.3167 164.482C66.389 164.32 66.3835 164.137 66.4001 163.948C66.4279 163.703 66.4557 163.464 66.4835 163.22C66.5503 162.675 66.6114 162.13 66.6893 161.585C66.8449 160.517 67.0062 159.455 67.2675 158.41C67.2786 158.36 67.1952 158.343 67.1841 158.393C66.9228 159.439 66.6337 160.478 66.4335 161.54C66.339 162.058 66.2445 162.58 66.1777 163.103C66.1444 163.364 66.1166 163.625 66.0888 163.892C66.0832 163.97 66.0665 164.048 66.061 164.131C65.7941 163.753 65.5272 163.381 65.2492 163.014C64.4041 161.902 63.5256 160.812 62.636 159.728C62.6027 159.689 62.5304 159.733 62.5693 159.778C64.1261 161.679 65.4383 163.787 66.7393 165.872C66.9839 166.261 67.2175 166.65 67.4621 167.045C67.3787 167.034 67.3009 167.023 67.223 167.017C66.9117 166.978 66.6003 166.956 66.2889 166.928C65.6662 166.872 65.0379 166.817 64.4152 166.767C63.1642 166.667 61.9132 166.589 60.6678 166.455C60.6122 166.45 60.6011 166.533 60.6511 166.539C61.9132 166.683 63.1698 166.889 64.4319 167.067C65.0491 167.156 65.6718 167.239 66.2889 167.317C66.7171 167.373 67.2508 167.501 67.7179 167.462C68.2071 168.257 68.702 169.058 69.1913 169.853C69.0801 169.836 68.9689 169.842 68.8577 169.842C68.6519 169.836 68.4407 169.842 68.2349 169.842C67.8457 169.842 67.4621 169.842 67.0729 169.842C66.2667 169.842 65.4605 169.858 64.6599 169.858C64.6043 169.858 64.6154 169.942 64.6654 169.942C65.4827 169.953 66.2945 169.992 67.1063 170.036C67.4955 170.058 67.8791 170.081 68.2627 170.108C68.4573 170.12 68.6464 170.136 68.841 170.147C69.0078 170.158 69.1913 170.192 69.3525 170.125C69.7695 170.803 70.1921 171.482 70.6035 172.16C70.9871 172.788 71.3763 173.411 71.7711 174.028C72.1714 174.651 72.5384 175.363 73.0277 175.919C73.0777 175.946 73.1444 175.919 73.1277 175.869Z" fill="#263238"/>
<path d="M69.5929 162.476C69.5317 163.004 69.3928 163.538 69.2593 164.049C69.1203 164.588 68.9646 165.117 68.7923 165.645C68.77 165.717 68.8701 165.751 68.8924 165.678C69.0592 165.156 69.2037 164.627 69.3316 164.099C69.4595 163.565 69.5429 163.026 69.6707 162.492C69.6874 162.437 69.5985 162.42 69.5929 162.476Z" fill="#263238"/>
<path d="M64.1378 165.71C64.0211 165.594 63.8932 165.582 63.732 165.56C63.4984 165.527 63.2649 165.493 63.0314 165.466C62.5977 165.404 62.164 165.36 61.7248 165.31C60.8185 165.204 59.9178 165.115 59.0115 165.004C58.9559 164.999 58.9448 165.082 58.9948 165.088C59.8455 165.193 60.6962 165.321 61.5469 165.432C61.9639 165.488 62.3809 165.543 62.7979 165.594C62.998 165.616 63.1982 165.638 63.3984 165.66C63.6208 165.682 63.8821 165.677 64.0878 165.777C64.1378 165.794 64.1712 165.738 64.1378 165.71Z" fill="#263238"/>
<path d="M69.5759 173.001C69.1477 172.962 68.7196 172.951 68.2915 172.94C68.0747 172.935 67.8578 172.929 67.641 172.918C67.5353 172.912 67.4353 172.912 67.3296 172.907C67.1962 172.901 67.0516 172.918 66.9237 172.885C66.8626 172.868 66.857 172.979 66.9182 172.968C67.0405 172.951 67.1739 172.973 67.2963 172.979C67.4075 172.985 67.5187 172.99 67.6299 173.001C67.8467 173.012 68.0635 173.029 68.2748 173.04C68.7029 173.068 69.1311 173.09 69.5592 173.096C69.6259 173.09 69.6315 173.007 69.5759 173.001Z" fill="#263238"/>
<path d="M72.194 171.141C72.2441 170.897 72.2886 170.657 72.333 170.413C72.422 169.935 72.511 169.456 72.5944 168.978C72.6055 168.923 72.5221 168.912 72.511 168.962C72.4053 169.429 72.2997 169.89 72.194 170.357C72.144 170.591 72.0884 170.824 72.0439 171.058C72.0217 171.163 71.9994 171.275 71.9772 171.38C71.955 171.491 71.916 171.608 71.9383 171.725C71.9438 171.764 72.005 171.797 72.0328 171.753C72.144 171.586 72.1551 171.341 72.194 171.141Z" fill="#263238"/>
<path d="M68.5849 185.426L68.1734 192.276L66.9558 212.492H46.2225L44.9993 192.276L44.5879 185.426H68.5849Z" fill="#455A64"/>
<path d="M68.5849 185.426L68.1734 192.276H44.9993L44.5879 185.426H68.5849Z" fill="#263238"/>
<path d="M70.498 180.578H42.6758V187.434H70.498V180.578Z" fill="#455A64"/>
<path d="M348.953 147.184H194.607V246.974H348.953V147.184Z" fill="#FFC727"/>
<path d="M300.314 136.848H348.953V147.184H297.518L300.314 136.848Z" fill="#FFC727"/>
<g opacity="0.1">
<path opacity="0.1" d="M348.953 147.184H194.607V246.974H348.953V147.184Z" fill="black"/>
<path opacity="0.1" d="M300.314 136.848H348.953V147.184H297.518L300.314 136.848Z" fill="black"/>
</g>
<path d="M218.805 81.5641C218.583 80.7468 218.533 79.9294 218.527 79.1121C218.533 78.2948 218.583 77.4775 218.805 76.6602C219.028 77.4775 219.078 78.2948 219.083 79.1121C219.072 79.9294 219.022 80.7468 218.805 81.5641Z" fill="#263238"/>
<path d="M223.797 83.0057C224.014 82.1883 224.381 81.4544 224.781 80.7427C225.198 80.0366 225.648 79.3527 226.243 78.7578C226.026 79.5751 225.659 80.3091 225.259 81.0207C224.848 81.7213 224.397 82.4052 223.797 83.0057Z" fill="#263238"/>
<path d="M227.406 86.7466C228.001 86.1461 228.685 85.6957 229.391 85.2787C230.103 84.8784 230.837 84.5115 231.654 84.2891C231.059 84.8895 230.375 85.3399 229.669 85.7569C228.952 86.1628 228.224 86.5297 227.406 86.7466Z" fill="#263238"/>
<path d="M228.656 91.7897C229.474 91.5673 230.291 91.5173 231.108 91.5117C231.926 91.5173 232.743 91.5673 233.56 91.7897C232.743 92.0121 231.926 92.0622 231.108 92.0677C230.291 92.0566 229.474 92.0121 228.656 91.7897Z" fill="#263238"/>
<path d="M227.217 96.7891C228.034 97.0059 228.768 97.3729 229.48 97.7732C230.186 98.1902 230.87 98.6405 231.465 99.2355C230.647 99.0186 229.913 98.6517 229.202 98.2513C228.496 97.8343 227.812 97.384 227.217 96.7891Z" fill="#263238"/>
<path d="M223.475 100.391C224.075 100.986 224.525 101.669 224.942 102.376C225.343 103.087 225.71 103.821 225.932 104.638C225.332 104.044 224.881 103.36 224.464 102.654C224.058 101.942 223.691 101.208 223.475 100.391Z" fill="#263238"/>
<path d="M218.426 101.641C218.649 102.458 218.699 103.275 218.704 104.093C218.699 104.91 218.649 105.727 218.426 106.545C218.204 105.727 218.154 104.91 218.148 104.093C218.16 103.275 218.21 102.458 218.426 101.641Z" fill="#263238"/>
<path d="M213.433 100.203C213.216 101.02 212.849 101.754 212.449 102.466C212.032 103.172 211.581 103.856 210.986 104.451C211.203 103.634 211.57 102.9 211.97 102.188C212.387 101.487 212.838 100.804 213.433 100.203Z" fill="#263238"/>
<path d="M209.83 96.4609C209.229 97.0614 208.551 97.5118 207.845 97.9288C207.133 98.3291 206.399 98.6961 205.582 98.9185C206.177 98.318 206.861 97.8676 207.567 97.4506C208.279 97.0503 209.013 96.6833 209.83 96.4609Z" fill="#263238"/>
<path d="M208.58 91.4147C207.762 91.6371 206.945 91.6872 206.128 91.6927C205.31 91.6872 204.493 91.6371 203.676 91.4147C204.493 91.1923 205.31 91.1423 206.128 91.1367C206.945 91.1478 207.762 91.1979 208.58 91.4147Z" fill="#263238"/>
<path d="M210.013 86.423C209.196 86.2061 208.462 85.8392 207.751 85.4388C207.044 85.0218 206.361 84.5715 205.766 83.9766C206.583 84.1934 207.317 84.5604 208.029 84.9607C208.735 85.3721 209.419 85.8225 210.013 86.423Z" fill="#263238"/>
<path d="M213.762 82.8143C213.162 82.2193 212.711 81.5355 212.294 80.8293C211.894 80.1177 211.527 79.3837 211.305 78.5664C211.905 79.1613 212.356 79.8452 212.773 80.5513C213.173 81.2686 213.54 81.9969 213.762 82.8143Z" fill="#263238"/>
<path d="M338.087 98.5117H237.707V227.37H338.087V98.5117Z" fill="#EBEBEB"/>
<path d="M338.088 227.369L237.708 227.547H237.53V227.369L237.436 98.5107V98.2383H237.708L338.088 98.2994H338.299V98.5107L338.088 227.369ZM338.088 227.369L337.877 98.5107L338.088 98.722L237.708 98.7832L237.98 98.5107L237.886 227.369L237.708 227.191L338.088 227.369Z" fill="#DBDBDB"/>
<path d="M248.689 126.049L287.899 125.949L327.108 126.049L287.899 126.149L248.689 126.049Z" fill="#C7C7C7"/>
<path d="M248.689 129.247L287.899 129.152L327.108 129.247L287.899 129.347L248.689 129.247Z" fill="#C7C7C7"/>
<path d="M248.689 132.442L287.899 132.348L327.108 132.442L287.899 132.542L248.689 132.442Z" fill="#C7C7C7"/>
<path d="M248.689 135.647L287.899 135.547L327.108 135.647L287.899 135.741L248.689 135.647Z" fill="#C7C7C7"/>
<path d="M248.689 138.842L287.899 138.742L327.108 138.842L287.899 138.942L248.689 138.842Z" fill="#C7C7C7"/>
<path d="M248.689 142.042L287.899 141.941L327.108 142.042L287.899 142.142L248.689 142.042Z" fill="#C7C7C7"/>
<path d="M248.689 145.237L287.899 145.137L327.108 145.237L287.899 145.337L248.689 145.237Z" fill="#C7C7C7"/>
<path d="M248.689 148.432L287.899 148.332L327.108 148.432L287.899 148.532L248.689 148.432Z" fill="#C7C7C7"/>
<path d="M248.689 151.63L287.899 151.535L327.108 151.63L287.899 151.73L248.689 151.63Z" fill="#C7C7C7"/>
<path d="M248.689 154.834L287.899 154.734L327.108 154.834L287.899 154.929L248.689 154.834Z" fill="#C7C7C7"/>
<path d="M248.689 158.03L287.899 157.93L327.108 158.03L287.899 158.13L248.689 158.03Z" fill="#C7C7C7"/>
<path d="M248.689 161.229L287.899 161.129L327.108 161.229L287.899 161.329L248.689 161.229Z" fill="#C7C7C7"/>
<path d="M248.689 164.424L287.899 164.324L327.108 164.424L287.899 164.524L248.689 164.424Z" fill="#C7C7C7"/>
<path d="M248.689 167.62L287.899 167.52L327.108 167.62L287.899 167.72L248.689 167.62Z" fill="#C7C7C7"/>
<path d="M248.689 170.817L287.899 170.723L327.108 170.817L287.899 170.917L248.689 170.817Z" fill="#C7C7C7"/>
<path d="M262.928 161.129H256.979V174.551H262.928V161.129Z" fill="#FFC727"/>
<path d="M273.959 153.973H268.01V174.55H273.959V153.973Z" fill="#FFC727"/>
<path d="M284.99 145.953H279.041V174.548H284.99V145.953Z" fill="#FFC727"/>
<path d="M296.027 142.512H290.078V174.548H296.027V142.512Z" fill="#FFC727"/>
<path d="M307.059 136.379H301.109V174.548H307.059V136.379Z" fill="#FFC727"/>
<path d="M318.09 130.32H312.141V174.55H318.09V130.32Z" fill="#FFC727"/>
<path d="M250.814 123.809L250.97 136.497L251.076 149.184C251.148 157.641 251.17 166.098 251.181 174.555L250.814 174.188L269.891 174.171L288.961 174.216L308.032 174.338L327.103 174.555L308.032 174.772L288.961 174.894L269.891 174.938L250.814 174.922H250.447V174.555C250.458 166.098 250.481 157.641 250.553 149.184L250.659 136.497L250.814 123.809Z" fill="#C7C7C7"/>
<path d="M262.928 177.23H256.979V177.77H262.928V177.23Z" fill="#C7C7C7"/>
<path d="M273.959 177.23H268.01V177.77H273.959V177.23Z" fill="#C7C7C7"/>
<path d="M284.99 177.23H279.041V177.77H284.99V177.23Z" fill="#C7C7C7"/>
<path d="M296.027 177.23H290.078V177.77H296.027V177.23Z" fill="#C7C7C7"/>
<path d="M307.059 177.23H301.109V177.77H307.059V177.23Z" fill="#C7C7C7"/>
<path d="M318.09 177.23H312.141V177.77H318.09V177.23Z" fill="#C7C7C7"/>
<path d="M257.652 162.825C260.56 162.786 263.463 162.552 266.337 162.163C269.217 161.791 272.075 161.285 274.894 160.623C280.526 159.289 286.07 157.476 291.235 154.868C296.433 152.344 301.282 149.086 305.513 145.149L306.313 144.421L307.075 143.648L308.593 142.097C309.533 140.996 310.533 139.945 311.39 138.778C313.23 136.537 314.759 134.057 316.26 131.566L316.305 131.594C313.664 136.776 310.217 141.602 305.974 145.639C303.9 147.707 301.571 149.503 299.174 151.182C296.778 152.867 294.226 154.323 291.607 155.63C286.347 158.204 280.749 160.056 275.038 161.257C269.317 162.424 263.474 163.069 257.652 162.825Z" fill="#263238"/>
<path d="M317.939 135.697L317.116 135.902L316.104 131.844L312.129 133.15L311.867 132.344L316.704 130.754L317.939 135.697Z" fill="#263238"/>
<path d="M328.786 194.5H247.01V197.808H328.786V194.5Z" fill="#DBDBDB"/>
<path d="M293.047 202.852H247.01V206.16H293.047V202.852Z" fill="#DBDBDB"/>
<path d="M310.916 112.75H264.879V116.058H310.916V112.75Z" fill="#DBDBDB"/>
<path d="M319.001 220.475L218.615 220.425L218.682 91.5664L293.214 91.6053L319.051 116.169L319.001 220.475Z" fill="#FFC727"/>
<path opacity="0.6" d="M319.001 220.475L218.615 220.425L218.682 91.5664L293.214 91.6053L319.051 116.169L319.001 220.475Z" fill="white"/>
<path d="M293.214 91.6055L319.052 116.17L293.203 116.158L293.214 91.6055Z" fill="#FFC727"/>
<path opacity="0.4" d="M293.214 91.6055L319.052 116.17L293.203 116.158L293.214 91.6055Z" fill="white"/>
<path d="M228.462 116.499L284.273 116.527L284.275 113.219L228.464 113.191L228.462 116.499Z" fill="white"/>
<path d="M228.46 124.85L284.271 124.879L284.273 121.571L228.462 121.542L228.46 124.85Z" fill="white"/>
<path d="M228.45 133.202L284.262 133.23L284.263 129.922L228.452 129.894L228.45 133.202Z" fill="white"/>
<path d="M228.448 141.556L310.225 141.598L310.226 138.289L228.45 138.248L228.448 141.556Z" fill="white"/>
<path d="M228.444 149.907L310.221 149.949L310.222 146.641L228.446 146.599L228.444 149.907Z" fill="white"/>
<path d="M228.442 158.259L310.219 158.301L310.22 154.993L228.444 154.951L228.442 158.259Z" fill="white"/>
<path d="M228.433 166.607L310.209 166.648L310.211 163.34L228.434 163.299L228.433 166.607Z" fill="white"/>
<path d="M228.431 174.963L310.207 175.004L310.209 171.696L228.432 171.654L228.431 174.963Z" fill="white"/>
<path d="M228.427 183.314L310.203 183.355L310.205 180.047L228.428 180.006L228.427 183.314Z" fill="white"/>
<path d="M228.425 191.666L310.201 191.707L310.203 188.399L228.426 188.358L228.425 191.666Z" fill="white"/>
<path d="M228.421 200.017L310.197 200.059L310.199 196.75L228.422 196.709L228.421 200.017Z" fill="white"/>
<path d="M228.413 208.365L310.189 208.406L310.191 205.098L228.415 205.057L228.413 208.365Z" fill="white"/>
<path d="M194.256 246.864H348.601L359.221 155.352H204.875L194.256 246.864Z" fill="#FFC727"/>
<path d="M312.39 145.98H361.034L359.934 155.46H308.498L312.39 145.98Z" fill="#FFC727"/>
<path d="M338.168 117.922C336.45 116.393 335.171 114.325 334.643 111.928C334.037 109.154 334.543 106.146 336.033 103.672C337.573 101.114 339.958 99.3684 342.744 98.7624L357.95 95.4375L358.384 97.4113L343.178 100.736C340.937 101.225 339.019 102.638 337.768 104.717C336.539 106.752 336.122 109.226 336.622 111.5C337.679 116.326 342.466 119.551 347.075 118.539L375.876 112.24C377.683 111.845 379.229 110.766 380.229 109.21C381.23 107.653 381.558 105.796 381.163 103.989C380.346 100.258 376.643 97.8839 372.912 98.7012L345.051 104.795C343.622 105.106 342.41 105.874 341.649 106.958C340.87 108.059 340.614 109.36 340.915 110.722C341.521 113.502 344.145 115.037 347.153 114.38L371.105 109.137L371.539 111.111L347.587 116.354C343.506 117.249 339.792 115.014 338.946 111.156C338.101 107.297 340.542 103.716 344.629 102.821L372.49 96.7274C377.31 95.671 382.092 98.7346 383.143 103.555C383.654 105.89 383.226 108.287 381.936 110.299C380.646 112.312 378.65 113.702 376.315 114.214L347.514 120.513C344.128 121.247 340.681 120.163 338.168 117.922Z" fill="#455A64"/>
<path d="M327.854 92.5002C326.013 93.879 323.734 94.7297 321.282 94.7686C318.446 94.8131 315.594 93.7234 313.465 91.7718C311.263 89.7535 310.023 87.0736 309.978 84.2213L309.723 68.6533L311.741 68.62L311.997 84.188C312.036 86.4787 313.042 88.6415 314.827 90.2817C316.578 91.8886 318.919 92.7837 321.249 92.7504C326.186 92.667 330.295 88.6137 330.217 83.8933L329.739 54.4142C329.711 52.5627 328.96 50.8335 327.631 49.5492C326.303 48.2593 324.551 47.5698 322.7 47.5976C318.88 47.6588 315.822 50.8169 315.883 54.6421L316.35 83.1538C316.372 84.6161 316.889 85.9561 317.796 86.9179C318.719 87.8965 319.947 88.4025 321.343 88.3802C324.184 88.3357 326.214 86.0673 326.164 82.9926L325.763 58.473L327.782 58.4396L328.182 82.9592C328.249 87.1403 325.324 90.3373 321.376 90.4041C317.429 90.4708 314.399 87.3683 314.332 83.1872L313.865 54.6755C313.787 49.7438 317.735 45.6627 322.666 45.5793C325.057 45.5404 327.32 46.4356 329.038 48.098C330.756 49.7605 331.724 51.99 331.762 54.3808L332.241 83.8599C332.291 87.3127 330.545 90.4819 327.854 92.5002Z" fill="#263238"/>
<path d="M88.6607 73.358C87.71 78.8513 85.6361 85.2786 87.3096 90.8108C88.6273 95.1421 92.1357 98.3947 95.9054 100.674C104.201 105.684 116.444 107.758 123.711 99.818C126.613 96.6433 127.959 89.4375 124.222 86.2627C122.299 84.6337 119.852 84.0054 117.567 83.0602C114.554 81.8259 112.524 79.7854 111.446 76.694C109.344 70.6725 110.439 66.597 110.678 60.4032C110.717 59.2523 110.595 58.1014 109.594 57.0005C108.771 55.8996 107.565 55.0656 106.219 54.5207C105.091 53.8924 103.878 53.4532 102.577 53.431C99.8252 53.3698 96.9062 55.5382 94.6044 56.8281C92.2803 58.1347 91.0904 59.6637 90.59 62.3047C89.8895 65.9743 89.3001 69.6717 88.6607 73.358Z" fill="#263238"/>
<path d="M87.6442 75.8712C88.8452 70.895 90.1351 65.9465 91.3972 60.987C91.4028 60.9592 91.4528 60.9648 91.4472 60.9926C90.5243 65.1014 89.6625 69.2214 88.6895 73.3191C87.7332 77.339 86.4766 81.4033 85.8761 85.4899C84.5306 94.664 93.51 99.6179 101.389 100.163C101.744 100.185 101.667 100.758 101.305 100.719C94.4052 100.018 86.4933 96.6266 85.3702 88.8816C84.753 84.6615 86.6656 79.9411 87.6442 75.8712Z" fill="#263238"/>
<path d="M110.295 59.8599C110.312 59.7598 110.457 59.7876 110.445 59.8822C110.028 64.9696 109.072 70.8632 111.391 75.6336C112.525 77.9688 114.371 79.9482 116.634 81.2214C118.435 82.2389 120.437 82.5614 122.377 83.2064C129.95 85.7195 128.688 96.2168 122.522 99.5861C122.394 99.6584 122.266 99.436 122.394 99.3582C126.77 96.7005 128.81 91.1127 126.113 86.4756C123.945 82.756 118.819 83.1952 115.505 80.9101C108.644 76.1952 109.206 67.188 110.295 59.8599Z" fill="#263238"/>
<path d="M138.333 244.964C137.099 245.364 101.865 244.909 100.537 244.036C100.025 243.713 99.7915 238.576 99.6914 232.36C99.6914 232.293 99.6914 232.232 99.6914 232.165C99.6692 230.886 99.6525 229.563 99.6469 228.229C99.6469 228.045 99.6469 227.862 99.6414 227.678C99.5913 218.71 99.7359 209.402 99.7359 209.402L123.305 209.636L122.593 227.739L122.565 228.456L122.421 232.204L122.41 232.588C122.41 232.588 135.815 238.793 137.177 239.905C138.528 241.017 139.568 244.569 138.333 244.964Z" fill="#AD6359"/>
<path d="M127.748 235.001C127.659 234.973 127.609 234.946 127.604 234.918C127.604 234.924 127.653 234.951 127.748 235.001Z" fill="#FFC727"/>
<path d="M138.328 244.966C137.093 245.366 101.86 244.91 100.531 244.037C100.08 243.754 99.8414 239.662 99.7246 234.391C106.18 235.736 131.2 240.801 131.884 238.661C132.151 237.821 130.015 236.364 128.659 235.547C132.356 237.31 136.454 239.322 137.177 239.917C138.522 241.018 139.568 244.571 138.328 244.966Z" fill="#FFC727"/>
<path d="M92.498 107.91C92.498 107.91 97.7856 167.441 98.6474 171.989C98.8476 173.023 98.9699 178.65 99.0533 185.884C99.2368 201.663 99.1256 230.13 99.1256 230.13H123.962C123.962 230.13 123.223 180.813 122.127 171.739C121.026 162.659 113.999 107.916 113.999 107.916H92.498V107.91Z" fill="#37474F"/>
<path d="M122.844 225.798C118.969 225.714 120.081 225.687 116.205 225.648C114.309 225.631 101.844 225.52 100.07 225.814C100.031 225.82 100.031 225.887 100.07 225.892C101.844 226.187 114.304 226.076 116.205 226.059C120.081 226.02 118.969 225.992 122.844 225.909C122.916 225.909 122.916 225.803 122.844 225.798Z" fill="#263238"/>
<path d="M103.851 197.608C103.824 194.005 103.796 190.403 103.768 186.8C103.746 183.314 103.746 179.816 103.584 176.33C103.251 169.275 101.816 162.336 100.799 155.358C99.7814 148.375 98.9308 141.369 98.1635 134.358C97.3017 126.49 96.54 118.612 95.7282 110.739C95.7226 110.683 95.6392 110.689 95.6448 110.739C96.8124 124.8 98.119 138.856 100.065 152.828C100.549 156.303 101.077 159.773 101.65 163.236C102.228 166.739 102.806 170.248 103.084 173.795C103.357 177.264 103.401 180.745 103.434 184.225C103.473 187.823 103.507 191.426 103.54 195.023C103.618 203.018 103.696 215.328 103.774 223.323C103.774 223.479 104.013 223.473 104.013 223.318C103.957 216.184 103.901 204.742 103.851 197.608Z" fill="#263238"/>
<path d="M87.2656 107.91C87.2656 107.91 97.7907 167.441 98.6525 171.989C98.8527 173.023 98.975 178.65 99.0584 185.884L99.0639 185.906L110.901 107.916H87.2656V107.91Z" fill="#263238"/>
<path d="M79.5986 246.965C78.3142 246.764 47.0892 230.44 46.2942 229.067C45.9828 228.55 48.0956 223.863 50.8144 218.269C50.8422 218.214 50.87 218.153 50.9034 218.097C51.4594 216.946 62.6128 198.137 62.6128 198.137L81.817 209.412L71.1696 228.4L70.9806 228.739C70.9806 228.739 80.1379 240.332 80.8551 241.938C81.5557 243.534 80.8829 247.176 79.5986 246.965Z" fill="#AD6359"/>
<path d="M79.5988 246.966C78.3144 246.765 47.0895 230.447 46.2944 229.062C46.0275 228.623 47.5287 225.131 49.6638 220.645C54.1396 224.031 75.7513 240.26 77.3303 238.576C77.6639 238.22 77.4137 237.375 76.9745 236.474C78.8704 238.976 80.5551 241.278 80.8498 241.928C81.5559 243.535 80.8832 247.171 79.5988 246.966Z" fill="#FFC727"/>
<path d="M73.927 227.705L51.1699 213.644C51.1699 213.644 77.4965 175.97 77.6244 172.628C77.8134 167.652 80.1987 147.119 82.2003 130.494C82.2003 130.494 78.4028 121.493 85.5085 107.898H114.02C114.02 107.898 112.108 120.837 108.838 129.043C108.838 129.043 106.347 129.816 102.5 131.94C102.5 131.94 99.6642 169.008 99.553 173.629C99.3473 182.758 73.927 227.705 73.927 227.705Z" fill="#37474F"/>
<path d="M75.3223 222.448C72.0363 220.391 73.0093 220.936 69.7011 218.912C68.0831 217.923 57.4413 211.428 55.7733 210.772C55.7344 210.756 55.701 210.817 55.7344 210.839C57.1021 212.001 67.8552 218.306 69.4898 219.268C72.837 221.225 71.8973 220.63 75.2611 222.548C75.3278 222.582 75.3834 222.487 75.3223 222.448Z" fill="#263238"/>
<path d="M109.923 128.467C107.354 129.351 104.874 130.608 102.5 131.926C102.406 131.976 102.467 132.12 102.567 132.076C105.069 131.003 107.615 129.974 110.056 128.762C110.251 128.673 110.123 128.401 109.923 128.467Z" fill="#263238"/>
<path d="M106.431 124.336C106.681 122.846 106.875 121.35 107.003 119.849C107.242 117.041 107.253 114.228 106.914 111.431C106.903 111.337 106.77 111.348 106.77 111.437C106.775 115.323 106.67 119.21 106.091 123.057C105.813 124.909 104.879 127.694 106.814 127.978C108.788 128.267 110.061 123.602 110.3 122.323C110.973 118.76 111.001 114.912 110.717 111.309C110.712 111.22 110.556 111.203 110.562 111.298C110.584 114.267 110.395 116.88 110.145 119.649C110.028 120.939 108.994 128.056 106.759 127.533C106.386 127.444 106.191 127.077 106.136 126.516C106.064 125.843 106.314 125.015 106.431 124.336Z" fill="#263238"/>
<path d="M106.815 127.735C106.615 128.213 106.454 128.708 106.315 129.209C106.209 129.598 106.059 130.015 106.104 130.421C106.115 130.499 106.215 130.504 106.259 130.454C106.521 130.12 106.632 129.67 106.776 129.275C106.949 128.819 107.127 128.363 107.282 127.908C107.388 127.596 106.938 127.441 106.815 127.735Z" fill="#263238"/>
<path d="M88.8607 109.688C87.9823 111.172 87.2928 112.762 86.7201 114.386C86.1474 116.009 85.7249 117.683 85.4524 119.379C85.2912 120.224 85.2356 121.08 85.1411 121.936C85.1189 122.792 85.0354 123.649 85.0855 124.51C85.0855 126.229 85.3579 127.93 85.6804 129.609L85.686 129.637V129.665C85.0299 136.854 84.3405 144.043 83.6399 151.232C82.9505 158.421 82.2499 165.61 81.516 172.788L81.4493 173.461L81.4159 173.8C81.3992 173.917 81.4103 174.017 81.3436 174.167C81.1379 174.662 80.9155 175.006 80.6875 175.418C80.2316 176.202 79.759 176.975 79.2864 177.742C78.3412 179.282 77.3738 180.805 76.4119 182.334C74.477 185.387 72.5032 188.406 70.5405 191.431C66.6096 197.485 62.6064 203.496 58.5977 209.495L70.2292 191.23L76.0116 182.079C76.9735 180.55 77.9298 179.021 78.8694 177.481C79.3365 176.713 79.8035 175.94 80.2539 175.162C80.4651 174.784 80.7153 174.356 80.8599 174.017C80.8988 173.961 80.9044 173.833 80.9155 173.722L80.9489 173.383L81.0156 172.71C81.6995 165.527 82.4167 158.343 83.1451 151.165C83.8623 143.987 84.5906 136.804 85.3468 129.631L85.3524 129.687C85.041 127.98 84.7852 126.256 84.8075 124.516C84.7686 123.649 84.852 122.781 84.902 121.92C85.0132 121.063 85.0855 120.196 85.269 119.351C85.5803 117.649 86.0363 115.976 86.6423 114.358C87.2261 112.729 87.9545 111.155 88.8607 109.688Z" fill="#263238"/>
<path d="M102.611 82.1197C106.854 84.4049 126.508 90.4375 133.481 90.1817C139.986 89.9426 154.275 82.2587 154.948 80.1848C155.593 78.2055 151.962 66.0513 149.827 66.6629C147.692 67.2745 134.976 76.4986 132.18 76.8655C130.534 77.0824 114.805 76.5764 106.754 76.8544C99.47 77.1157 96.7679 78.9728 102.611 82.1197Z" fill="#AD6359"/>
<path d="M114.305 87.6889L120.649 76.0185C120.649 76.0185 106.042 75.7905 101.728 76.9359C96.874 78.2258 98.592 80.4276 102.701 82.8573C106.81 85.2926 114.305 87.6889 114.305 87.6889Z" fill="#FFC727"/>
<path d="M105.593 76.8457C105.593 77.4017 105.148 77.8521 104.592 77.8521C104.042 77.8521 103.591 77.4017 103.591 76.8457C103.591 76.7568 103.602 76.6734 103.63 76.5955C104.197 76.5177 104.82 76.451 105.482 76.3954C105.554 76.5288 105.593 76.6845 105.593 76.8457ZM111.575 76.084C111.57 76.0784 111.57 76.084 111.575 76.084C111.353 76.2675 111.214 76.5399 111.214 76.8457C111.214 77.4017 111.659 77.8521 112.215 77.8521C112.765 77.8521 113.216 77.4017 113.216 76.8457C113.216 76.5177 113.06 76.2286 112.815 76.0506C112.815 76.0506 112.81 76.0451 112.81 76.0506L111.575 76.084ZM120.394 76.0173C120.16 76.0173 119.782 76.0117 119.287 76.0117C119.015 76.1841 118.831 76.4954 118.831 76.8457C118.831 77.3461 119.193 77.7576 119.665 77.8354L120.566 76.173C120.521 76.1118 120.46 76.0618 120.394 76.0173ZM101.078 81.8219C101.234 81.9276 101.378 82.0388 101.545 82.1333C101.428 81.9887 101.267 81.8775 101.078 81.8219ZM108.401 81.7719C107.845 81.7719 107.4 82.2222 107.4 82.7727C107.4 83.3231 107.85 83.7735 108.401 83.7735C108.951 83.7735 109.401 83.3231 109.401 82.7727C109.401 82.2222 108.957 81.7719 108.401 81.7719ZM116.023 81.7719C115.467 81.7719 115.023 82.2222 115.023 82.7727C115.023 83.3231 115.473 83.7735 116.023 83.7735C116.574 83.7735 117.024 83.3231 117.024 82.7727C117.024 82.2222 116.574 81.7719 116.023 81.7719Z" fill="white"/>
<path d="M117.685 76.5348C117.401 76.9073 115.366 80.5102 114.943 81.3053C114.515 82.1003 112.747 85.3251 112.38 86.1814C112.364 86.2203 112.414 86.2481 112.436 86.2147C112.959 85.4475 114.754 82.2004 115.205 81.3998C115.655 80.5991 117.59 76.9907 117.746 76.5626C117.751 76.5237 117.701 76.5125 117.685 76.5348Z" fill="#263238"/>
<path opacity="0.1" d="M116.283 84.0542L114.304 87.6904C114.304 87.6904 106.809 85.294 102.7 82.8643C99.2751 80.8349 97.5126 78.9723 99.8311 77.6602L116.283 84.0542Z" fill="black"/>
<path d="M113.487 102.683L114.349 109.405L85.209 108.487C85.209 108.487 86.6768 87.0089 95.078 78.908C99.2813 74.8603 103.891 75.4552 106.671 78.6244C107.371 79.425 115.633 90.2226 116.306 94.7818C116.884 98.8016 113.487 102.683 113.487 102.683Z" fill="#FFC727"/>
<path d="M97.9755 76.8503C97.9755 77.4063 97.5251 77.8566 96.9747 77.8566C96.8023 77.8566 96.6411 77.8122 96.4965 77.7288C96.9858 77.3729 97.4806 77.0838 97.9755 76.8503ZM103.658 76.5C103.613 76.6112 103.591 76.728 103.591 76.8503C103.591 77.4063 104.041 77.8566 104.592 77.8566C104.925 77.8566 105.22 77.6954 105.393 77.4452C104.853 77.0449 104.269 76.728 103.658 76.5ZM89.7355 87.5866C89.4853 88.2038 89.2518 88.8321 89.035 89.4604C89.1351 89.4993 89.2407 89.516 89.3519 89.516C89.9079 89.516 90.3527 89.0656 90.3527 88.5096C90.3527 88.0926 90.1025 87.7368 89.7355 87.5866ZM96.9747 87.5088C96.4187 87.5088 95.9739 87.9592 95.9739 88.5096C95.9739 89.06 96.4242 89.5104 96.9747 89.5104C97.5251 89.5104 97.9755 89.06 97.9755 88.5096C97.9755 87.9592 97.5251 87.5088 96.9747 87.5088ZM104.592 87.5088C104.041 87.5088 103.591 87.9592 103.591 88.5096C103.591 89.06 104.041 89.5104 104.592 89.5104C105.148 89.5104 105.593 89.06 105.593 88.5096C105.593 87.9592 105.148 87.5088 104.592 87.5088ZM112.215 87.5088C111.659 87.5088 111.214 87.9592 111.214 88.5096C111.214 89.06 111.664 89.5104 112.215 89.5104C112.765 89.5104 113.215 89.06 113.215 88.5096C113.215 87.9592 112.765 87.5088 112.215 87.5088ZM93.1605 81.7764C92.9548 81.7764 92.7602 81.8376 92.6045 81.9488C92.599 81.9488 92.5989 81.9544 92.5934 81.9599C92.4488 82.1712 92.3154 82.3769 92.182 82.5993C92.182 82.5993 92.1764 82.6049 92.1764 82.6104C92.1653 82.666 92.1597 82.7216 92.1597 82.7772C92.1597 83.3332 92.6101 83.778 93.1605 83.778C93.7165 83.778 94.1613 83.3332 94.1613 82.7772C94.1613 82.2268 93.7165 81.7764 93.1605 81.7764ZM100.783 81.7764C100.227 81.7764 99.7825 82.2268 99.7825 82.7772C99.7825 83.3277 100.233 83.778 100.783 83.778C101.334 83.778 101.784 83.3277 101.784 82.7772C101.784 82.2268 101.334 81.7764 100.783 81.7764ZM108.4 81.7764C107.844 81.7764 107.4 82.2268 107.4 82.7772C107.4 83.3277 107.85 83.778 108.4 83.778C108.951 83.778 109.401 83.3277 109.401 82.7772C109.401 82.2268 108.956 81.7764 108.4 81.7764ZM89.3519 99.1681C88.7959 99.1681 88.3511 99.6185 88.3511 100.169C88.3511 100.725 88.8015 101.17 89.3519 101.17C89.9024 101.17 90.3527 100.719 90.3527 100.169C90.3527 99.6185 89.9079 99.1681 89.3519 99.1681ZM96.9747 99.1681C96.4187 99.1681 95.9739 99.6185 95.9739 100.169C95.9739 100.725 96.4242 101.17 96.9747 101.17C97.5251 101.17 97.9755 100.719 97.9755 100.169C97.9755 99.6185 97.5251 99.1681 96.9747 99.1681ZM104.592 99.1681C104.041 99.1681 103.591 99.6185 103.591 100.169C103.591 100.725 104.041 101.17 104.592 101.17C105.148 101.17 105.593 100.719 105.593 100.169C105.593 99.6185 105.148 99.1681 104.592 99.1681ZM112.215 99.1681C111.659 99.1681 111.214 99.6185 111.214 100.169C111.214 100.725 111.664 101.17 112.215 101.17C112.765 101.17 113.215 100.719 113.215 100.169C113.215 99.6185 112.765 99.1681 112.215 99.1681ZM93.1605 93.4358C92.6045 93.4358 92.1597 93.8861 92.1597 94.4366C92.1597 94.9926 92.6101 95.4374 93.1605 95.4374C93.711 95.4374 94.1613 94.987 94.1613 94.4366C94.1613 93.8861 93.7165 93.4358 93.1605 93.4358ZM100.783 93.4358C100.227 93.4358 99.7825 93.8861 99.7825 94.4366C99.7825 94.9926 100.233 95.4374 100.783 95.4374C101.334 95.4374 101.784 94.987 101.784 94.4366C101.784 93.8861 101.334 93.4358 100.783 93.4358ZM108.4 93.4358C107.844 93.4358 107.4 93.8861 107.4 94.4366C107.4 94.9926 107.85 95.4374 108.4 95.4374C108.951 95.4374 109.401 94.987 109.401 94.4366C109.407 93.8861 108.956 93.4358 108.4 93.4358ZM116.301 94.7813C116.24 94.381 116.123 93.9306 115.957 93.4413C115.428 93.4747 115.022 93.9084 115.022 94.4366C115.022 94.9926 115.467 95.4374 116.023 95.4374C116.14 95.4374 116.251 95.4151 116.357 95.3762C116.346 95.1816 116.329 94.9814 116.301 94.7813ZM85.56 105.095C85.4599 105.873 85.3876 106.541 85.332 107.074V107.08C85.3988 107.097 85.471 107.102 85.5433 107.102C86.0938 107.102 86.5441 106.652 86.5441 106.096C86.5441 105.551 86.1049 105.106 85.56 105.095ZM93.1605 105.095C92.6045 105.095 92.1597 105.545 92.1597 106.096C92.1597 106.646 92.6101 107.097 93.1605 107.097C93.711 107.097 94.1613 106.646 94.1613 106.096C94.1613 105.545 93.7165 105.095 93.1605 105.095ZM100.783 105.095C100.227 105.095 99.7825 105.545 99.7825 106.096C99.7825 106.646 100.233 107.097 100.783 107.097C101.334 107.097 101.784 106.646 101.784 106.096C101.784 105.545 101.334 105.095 100.783 105.095ZM108.4 105.095C107.844 105.095 107.4 105.545 107.4 106.096C107.4 106.646 107.85 107.097 108.4 107.097C108.951 107.097 109.401 106.646 109.401 106.096C109.407 105.545 108.956 105.095 108.4 105.095Z" fill="white"/>
<path d="M108.656 100.403C107.105 100.53 105.548 100.708 104.03 101.064C103.274 101.242 102.534 101.453 101.789 101.681C101.417 101.793 101.05 101.893 100.677 101.993C100.294 102.093 99.8824 102.187 99.4821 102.193C99.4487 102.193 99.4487 102.248 99.4821 102.248C99.8713 102.265 100.238 102.282 100.627 102.248C100.994 102.215 101.361 102.148 101.723 102.065C102.49 101.893 103.252 101.687 104.013 101.503C105.559 101.142 107.105 100.775 108.673 100.525C108.745 100.519 108.728 100.397 108.656 100.403Z" fill="#263238"/>
<path d="M112.47 101.857C111.197 101.702 109.902 101.602 108.623 101.59C107.978 101.585 107.338 101.618 106.699 101.663C106.393 101.685 106.087 101.713 105.782 101.746C105.442 101.779 105.114 101.863 104.775 101.896C104.742 101.902 104.736 101.952 104.775 101.952C105.092 101.93 105.415 101.963 105.737 101.963C106.06 101.963 106.376 101.957 106.699 101.957C107.338 101.957 107.983 101.957 108.623 101.952C109.907 101.935 111.186 101.93 112.476 101.957C112.537 101.963 112.531 101.863 112.47 101.857Z" fill="#263238"/>
<path d="M208.603 80.4126C178.573 73.3903 148.894 66.5126 119.471 59.7461C108.417 95.9917 111.397 138.131 95.8906 172.503C125.92 179.525 155.599 186.403 185.023 193.169C196.082 156.929 193.102 114.79 208.603 80.4126Z" fill="#EBEBEB"/>
<path d="M109.836 158.639C126.143 162.381 142.373 166.09 158.542 169.776C158.764 168.82 158.975 167.858 159.181 166.896C143.051 163.232 126.866 159.54 110.609 155.82C110.359 156.76 110.103 157.705 109.836 158.639Z" fill="#DBDBDB"/>
<path d="M111.699 151.472C127.884 155.164 144.008 158.828 160.082 162.47C160.271 161.497 160.455 160.524 160.627 159.551C144.587 155.92 128.502 152.273 112.355 148.598C112.144 149.56 111.927 150.521 111.699 151.472Z" fill="#DBDBDB"/>
<path d="M113.283 144.189C129.368 147.836 145.403 151.467 161.405 155.075C161.566 154.091 161.727 153.107 161.878 152.123C145.904 148.52 129.896 144.906 113.845 141.27C113.661 142.248 113.472 143.221 113.283 144.189Z" fill="#DBDBDB"/>
<path d="M114.635 136.81C138.092 142.109 161.461 147.374 184.785 152.617C184.924 151.622 185.058 150.632 185.191 149.637C161.878 144.399 138.537 139.145 115.118 133.863C114.963 134.847 114.802 135.826 114.635 136.81Z" fill="#DBDBDB"/>
<path d="M115.818 129.354C139.187 134.619 162.5 139.857 185.797 145.089C185.924 144.094 186.052 143.098 186.186 142.103C162.895 136.871 139.598 131.639 116.252 126.391C116.107 127.375 115.963 128.364 115.818 129.354Z" fill="#DBDBDB"/>
<path d="M116.875 121.849C140.194 127.087 163.473 132.313 186.764 137.545C186.892 136.55 187.02 135.554 187.153 134.559C163.851 129.327 140.572 124.101 117.27 118.863C117.142 119.864 117.008 120.854 116.875 121.849Z" fill="#DBDBDB"/>
<path d="M117.865 114.318C141.156 119.55 164.441 124.776 187.766 130.019C187.899 129.024 188.038 128.034 188.177 127.045C164.836 121.796 141.54 116.564 118.249 111.332C118.127 112.327 117.999 113.323 117.865 114.318Z" fill="#DBDBDB"/>
<path d="M118.844 106.775C142.14 112.007 165.459 117.25 188.839 122.515C188.989 121.525 189.139 120.541 189.295 119.557C165.881 114.275 142.546 109.027 119.233 103.789C119.105 104.784 118.972 105.78 118.844 106.775Z" fill="#DBDBDB"/>
<path d="M119.855 99.2559C143.191 104.504 166.571 109.77 190.039 115.074C190.212 114.095 190.384 113.117 190.562 112.144C167.049 106.823 143.636 101.541 120.278 96.2812C120.133 97.2709 119.994 98.2606 119.855 99.2559Z" fill="#DBDBDB"/>
<path d="M120.955 91.7632C144.357 97.0396 167.831 102.344 191.423 107.704C191.617 106.736 191.823 105.774 192.034 104.813C168.387 99.436 144.869 94.1095 121.433 88.8164C121.266 89.795 121.111 90.7791 120.955 91.7632Z" fill="#DBDBDB"/>
<path d="M122.207 84.337C145.709 89.6523 169.306 95.0122 193.041 100.433C193.275 99.4824 193.514 98.5317 193.759 97.5864C169.951 92.1376 146.299 86.7556 122.752 81.418C122.563 82.391 122.385 83.364 122.207 84.337Z" fill="#DBDBDB"/>
<path d="M123.652 76.9973C147.282 82.3682 171.035 87.7948 194.954 93.2881C195.226 92.354 195.51 91.4199 195.799 90.4914C171.796 84.9647 147.977 79.5104 124.292 74.1172C124.069 75.0735 123.858 76.0298 123.652 76.9973Z" fill="#DBDBDB"/>
<path d="M99.9761 78.4644C100.126 79.0371 102.979 82.6789 105.603 82.4732C106.454 82.4065 106.292 77.7305 106.292 77.7305L106.359 77.3802L107.293 72.5152L101.505 69.0458L100.671 68.5898C100.671 68.5898 100.504 69.9409 100.31 71.62C100.299 71.6979 100.293 71.7757 100.282 71.8591C100.271 71.9536 100.254 72.0426 100.249 72.1316C100.215 72.3818 100.187 72.6375 100.16 72.8933C100.137 73.0879 100.121 73.2769 100.104 73.4826C100.087 73.6884 100.071 73.8885 100.048 74.0942C99.8983 76.1236 99.915 78.2198 99.9761 78.4644Z" fill="#AD6359"/>
<path d="M107.298 72.5135L106.398 77.1895C102.873 76.0831 101.043 73.5477 100.254 72.091L100.31 71.6184C100.504 69.9393 100.671 68.5938 100.671 68.5938L101.505 69.0441L107.298 72.5135Z" fill="#263238"/>
<path d="M113.227 64.6197C114.433 73.2321 109.413 74.9279 107.556 75.1892C105.871 75.4228 100.1 76.0066 98.0092 67.5665C95.9186 59.1264 99.5437 55.8404 103.369 55.101C107.194 54.3559 112.02 56.0072 113.227 64.6197Z" fill="#AD6359"/>
<path d="M111.764 63.4544C111.559 63.4488 111.37 63.4099 111.169 63.3821C110.941 63.3488 110.758 63.3488 110.574 63.1875C110.48 63.1041 110.469 62.9151 110.541 62.8094C110.713 62.5704 111.003 62.5426 111.281 62.5648C111.581 62.5926 111.803 62.6927 112.02 62.904C112.231 63.1152 112.037 63.4655 111.764 63.4544Z" fill="#263238"/>
<path d="M105.888 63.7909C106.088 63.7519 106.266 63.6797 106.461 63.6185C106.683 63.5518 106.861 63.5184 107.017 63.3294C107.1 63.2293 107.072 63.0403 106.983 62.9513C106.772 62.7456 106.483 62.7623 106.216 62.8345C105.927 62.9124 105.721 63.0458 105.543 63.2905C105.371 63.5351 105.621 63.8465 105.888 63.7909Z" fill="#263238"/>
<path d="M107.271 65.4036C107.266 65.3814 107.227 65.4369 107.232 65.4592C107.316 66.0486 107.31 66.7324 106.799 66.9826C106.782 66.9882 106.788 67.0216 106.81 67.016C107.444 66.8548 107.444 65.9429 107.271 65.4036Z" fill="#263238"/>
<path d="M106.677 64.8439C105.721 64.8717 105.854 66.7788 106.738 66.751C107.611 66.7288 107.478 64.8217 106.677 64.8439Z" fill="#263238"/>
<path d="M106.31 64.9706C106.149 65.0873 105.999 65.293 105.799 65.3264C105.565 65.3653 105.376 65.1763 105.215 64.9984C105.198 64.9817 105.182 64.9984 105.182 65.0206C105.204 65.3876 105.365 65.749 105.765 65.7768C106.127 65.8046 106.36 65.4598 106.427 65.0873C106.444 65.0206 106.377 64.9205 106.31 64.9706Z" fill="#263238"/>
<path d="M110.574 65.1037C110.574 65.0814 110.624 65.1259 110.624 65.1537C110.652 65.7431 110.785 66.4158 111.336 66.5715C111.353 66.5771 111.353 66.6049 111.336 66.6049C110.674 66.566 110.507 65.6708 110.574 65.1037Z" fill="#263238"/>
<path d="M111.052 64.4459C111.997 64.2958 112.225 66.1973 111.346 66.3308C110.49 66.4642 110.262 64.5683 111.052 64.4459Z" fill="#263238"/>
<path d="M111.465 64.5226C111.626 64.606 111.798 64.7728 111.976 64.7616C112.187 64.7505 112.315 64.5281 112.421 64.3113C112.432 64.289 112.449 64.3057 112.454 64.328C112.51 64.6894 112.432 65.0841 112.093 65.1953C111.782 65.2954 111.515 65.0118 111.381 64.6616C111.359 64.5948 111.398 64.4892 111.465 64.5226Z" fill="#263238"/>
<path d="M108.04 70.2292C108.201 70.346 108.368 70.5128 108.585 70.5016C108.791 70.4905 109.019 70.3626 109.197 70.2626C109.213 70.2514 109.235 70.2681 109.224 70.2904C109.102 70.535 108.802 70.724 108.524 70.7129C108.251 70.7018 108.09 70.4961 107.99 70.2626C107.973 70.2292 108.018 70.2125 108.04 70.2292Z" fill="#263238"/>
<path d="M107.633 68.6762C108.033 69.121 108.545 69.3211 109.068 69.3378C109.301 69.3489 109.54 69.3211 109.774 69.26C109.818 69.2544 109.863 69.2377 109.907 69.2266C109.946 69.2155 109.985 69.2044 110.03 69.1877C110.096 69.1654 110.124 69.1043 110.124 69.0431V69.0376C110.118 69.0153 110.118 68.9986 110.107 68.982C110.107 68.982 110.107 68.982 110.107 68.9764L110.096 68.9264C110.041 68.4816 109.891 67.8199 109.891 67.8199C110.063 67.8755 110.941 68.1146 110.891 67.8866C110.48 65.9962 110.024 63.9001 109.212 62.1042C109.19 62.0431 109.095 62.0709 109.112 62.1376C109.435 63.9669 110.08 65.7294 110.435 67.5642C110.157 67.503 109.701 67.3862 109.474 67.4307C109.412 67.4585 109.779 68.7095 109.79 68.9097C109.79 68.9097 109.79 68.9208 109.79 68.9319C109.062 69.1432 108.473 69.0042 107.678 68.6206C107.633 68.5928 107.594 68.6372 107.633 68.6762Z" fill="#263238"/>
<path d="M98.0913 67.0759C100.149 66.9925 99.9706 63.7455 99.9706 63.7455C99.9706 63.7455 102.295 63.4175 102.272 59.6367C102.272 59.6367 103.512 61.8551 106.698 62.1554C107.371 62.2221 105.041 60.5986 105.041 60.5986C105.041 60.5986 107.855 62.8948 112.803 61.7217C113.153 61.6383 112.136 56.4119 108.127 54.8106C104.118 53.2149 100.638 54.4103 98.3415 57.0068C98.3415 57.0068 96.2009 58.1077 96.0119 60.8376C95.8284 63.5731 97.2907 67.1093 98.0913 67.0759Z" fill="#263238"/>
<path d="M99.4653 68.033C99.4653 68.033 97.4248 65.4198 96.2349 66.1649C95.0451 66.9099 96.6742 70.763 98.1476 71.2245C99.621 71.686 100.071 70.3293 100.071 70.3293L99.4653 68.033Z" fill="#AD6359"/>
<path d="M96.7307 67.2539C96.7084 67.2539 96.7029 67.2873 96.7251 67.2928C97.7593 67.6487 98.3431 68.5605 98.7656 69.5168C98.4431 69.1554 98.0261 68.9719 97.5424 69.3611C97.5146 69.3834 97.5424 69.4223 97.5702 69.4167C97.9817 69.3055 98.2819 69.3611 98.5821 69.6781C98.7934 69.9005 98.9435 70.1951 99.0992 70.4565C99.1493 70.5454 99.3105 70.4898 99.2716 70.3842C99.266 70.3786 99.266 70.3675 99.2605 70.3619C99.2215 69.0665 98.1262 67.3095 96.7307 67.2539Z" fill="#263238"/>
<path d="M98.6918 71.2234C98.9282 71.2234 99.1199 71.0318 99.1199 70.7953C99.1199 70.5589 98.9282 70.3672 98.6918 70.3672C98.4553 70.3672 98.2637 70.5589 98.2637 70.7953C98.2637 71.0318 98.4553 71.2234 98.6918 71.2234Z" fill="white"/>
<path d="M100.46 65.0567L96.8184 65.04L96.8962 64.0781L100.494 64.5118L100.46 65.0567Z" fill="#FFC727"/>
<path d="M100.615 64.1348L97.0293 63.4731L97.2795 62.5391L100.743 63.6066L100.615 64.1348Z" fill="#FFC727"/>
<path d="M92.8212 83.612C91.1309 87.9265 84.9204 108.293 87.6059 115.782C89.2517 120.375 105.52 129.426 109.635 131.439C111.425 132.318 117.975 120.747 117.174 118.768C116.373 116.788 100.872 109.155 99.8546 107.926C99.8546 107.926 99.293 93.3976 98.9872 85.6692C98.6925 78.3633 95.9737 75.5555 92.8212 83.612Z" fill="#AD6359"/>
<path d="M127.566 125.422C129.862 126.406 133.693 125.8 133.499 127.646C133.326 129.291 130.63 129.453 130.63 129.453C130.63 129.453 133.727 130.253 133.037 131.971C132.348 133.689 129.356 133.261 129.356 133.261C129.356 133.261 131.964 133.812 131.152 135.474C130.34 137.137 127.733 137.237 127.733 137.237C127.733 137.237 128.372 137.904 127.271 138.821C125.692 140.133 121.361 139.205 119.209 138.182C117.063 137.159 109.952 131.832 108.879 130.993L115.317 117.148C115.317 117.148 119.977 117.204 122.334 117.515C124.692 117.832 132.175 121.029 131.508 122.942C130.841 124.855 125.592 122.503 124.186 122.208C122.773 121.913 122.468 122.191 123.001 122.82C123.346 123.237 126.554 124.988 127.566 125.422Z" fill="#AD6359"/>
<path d="M130.501 129.396C126.726 129.357 125.086 128.685 121.967 126.666C121.905 126.627 121.833 126.711 121.894 126.755C124.769 129.007 126.709 130.147 130.512 129.574C130.696 129.552 130.679 129.396 130.501 129.396Z" fill="#263238"/>
<path d="M129.517 133.221C125.602 132.837 123.812 132.126 120.387 130.252C120.337 130.224 120.287 130.302 120.337 130.335C123.54 132.454 125.502 133.544 129.467 133.416C129.645 133.41 129.695 133.238 129.517 133.221Z" fill="#263238"/>
<path d="M127.688 137.196C123.923 136.551 121.927 135.856 118.836 133.609C118.764 133.554 118.68 133.659 118.747 133.715C121.677 136.312 124.157 137.196 127.654 137.307C127.899 137.318 127.927 137.24 127.688 137.196Z" fill="#263238"/>
<path d="M100.432 95.8928L87.3887 98.3892C87.3887 98.3892 91.6143 84.4058 94.0162 80.6417C96.7184 76.4105 98.2918 78.7179 99.3594 83.3716C100.427 88.0254 100.432 95.8928 100.432 95.8928Z" fill="#FFC727"/>
<path d="M97.974 88.51C97.974 89.0605 97.5236 89.5109 96.9732 89.5109C96.4227 89.5109 95.9724 89.0605 95.9724 88.51C95.9724 87.954 96.4227 87.5092 96.9732 87.5092C97.5236 87.5092 97.974 87.9596 97.974 88.51ZM93.3703 81.8047C93.109 82.3218 92.8365 82.9222 92.5585 83.5728C92.7253 83.7062 92.9366 83.7785 93.159 83.7785C93.715 83.7785 94.1598 83.3337 94.1598 82.7777C94.1598 82.2995 93.8262 81.8936 93.3703 81.8047ZM93.159 93.4362C92.603 93.4362 92.1582 93.8866 92.1582 94.437C92.1582 94.993 92.6086 95.4378 93.159 95.4378C93.7094 95.4378 94.1598 94.9875 94.1598 94.437C94.1598 93.8866 93.715 93.4362 93.159 93.4362ZM100.387 93.5196C100.031 93.6697 99.781 94.0256 99.781 94.437C99.781 94.8651 100.048 95.2321 100.426 95.3711C100.42 94.9541 100.409 94.3147 100.387 93.5196Z" fill="white"/>
<path d="M88.7774 95.722C89.2167 95.5663 93.2699 94.7212 94.154 94.5599C95.038 94.3987 98.652 93.6926 99.5805 93.598C99.6194 93.5925 99.6361 93.6481 99.5972 93.6592C98.7076 93.9261 95.0658 94.6433 94.1706 94.8324C93.2699 95.0158 89.2445 95.7609 88.7886 95.7831C88.7441 95.7831 88.7496 95.7331 88.7774 95.722Z" fill="#263238"/>
<path d="M99.3977 96.0823C99.7869 95.9767 100.393 95.8432 100.393 95.8432C100.404 94.3031 99.7647 86.5024 99.6479 84.6176C99.6479 84.5898 99.6868 84.5842 99.6924 84.612C99.8258 85.674 99.9593 86.7359 100.082 87.7923C100.093 87.6589 100.098 87.5199 100.104 87.3865C100.132 86.9083 100.171 86.4246 100.182 85.9464C100.182 85.9075 100.243 85.902 100.243 85.9409C100.271 86.4246 100.293 86.9139 100.26 87.3976C100.237 87.7368 100.187 88.0759 100.137 88.4151C100.204 89.0267 100.276 89.6327 100.326 90.2443C100.482 92.1236 100.715 94.064 100.721 95.9489C100.721 95.9489 99.8703 96.1768 99.3922 96.1768C99.3477 96.1713 99.3421 96.099 99.3977 96.0823Z" fill="#263238"/>
<path d="M88.6504 98.1435C88.2389 98.2658 87.8219 98.3659 87.4049 98.4715L87.2715 98.5049L87.2993 98.3603C87.6551 96.6367 88.1333 94.9409 88.6948 93.2785C88.9784 92.4445 89.2731 91.6216 89.6123 90.8098C89.9347 89.9925 90.2906 89.1863 90.6798 88.4023C90.4296 89.2475 90.1571 90.0815 89.8903 90.9155L89.084 93.4119L87.4716 98.4103L87.366 98.2991C87.7941 98.2491 88.2222 98.1879 88.6504 98.1435Z" fill="#263238"/>
<path d="M89.5233 91.5118C89.3898 91.1616 89.3954 90.789 89.4343 90.4332C89.4621 90.2553 89.4955 90.0774 89.5566 89.905C89.6122 89.7326 89.6845 89.5658 89.7846 89.4102C89.7957 89.7827 89.7568 90.1274 89.7123 90.4721C89.6567 90.8168 89.6067 91.156 89.5233 91.5118Z" fill="#263238"/>
<path d="M151.828 60.5755C153.557 60.4198 154.119 61.8654 154.119 61.8654C154.119 61.8654 155.125 59.9917 156.888 60.1195C157.794 60.1863 158.484 61.693 158.484 61.693C158.484 61.693 159.351 60.2252 160.913 60.4365C162.159 60.6033 162.665 62.0878 162.665 62.0878C162.665 62.0878 164.155 61.0703 165.367 61.6485C167.824 62.8217 167.508 73.5803 163.499 75.126C161.631 75.8488 161.847 73.2245 161.847 73.2245C161.847 73.2245 160.619 76.9219 158.4 76.9163C156.182 76.9107 156.671 73.5136 156.671 73.5136C156.671 73.5136 155.453 77.0887 153.152 76.844C150.755 76.5938 151.828 73.2856 151.828 73.2856C151.828 73.2856 150.138 75.6319 148.414 75.0426C145.573 74.0751 149.599 69.01 149.104 66.6303L144.723 65.5405C144.723 65.5461 149.916 60.7534 151.828 60.5755Z" fill="#AD6359"/>
<path d="M162.776 62.3164C162.776 62.2831 162.826 62.2719 162.832 62.3053C163.593 65.8693 163.332 70.0226 161.848 73.3697C161.797 73.4809 161.597 73.4475 161.631 73.3197C162.504 69.5722 162.976 66.1751 162.776 62.3164Z" fill="#263238"/>
<path d="M158.507 61.6427C158.507 61.5983 158.574 61.5983 158.585 61.6427C159.347 65.3179 158.93 69.9883 156.761 73.6468C156.689 73.7747 156.494 73.808 156.567 73.6579C157.829 71.117 158.707 65.1177 158.507 61.6427Z" fill="#263238"/>
<path d="M151.584 73.5085C153.525 69.9167 154.119 66.0636 154.164 62.0159C154.164 61.9659 154.236 61.9715 154.253 62.0159C154.77 64.0009 154.475 66.5751 154.075 68.5601C153.691 70.4616 152.963 72.1018 151.712 73.5752C151.656 73.6363 151.54 73.5863 151.584 73.5085Z" fill="#263238"/>
<path d="M161.747 73.4409C161.519 74.186 161.186 74.8976 160.741 75.5537C160.302 76.1931 159.69 76.7936 158.873 77.0049C158.472 77.0994 158.039 77.105 157.633 76.9382C157.227 76.7714 156.921 76.4044 156.765 76.0208C156.454 75.2368 156.465 74.4195 156.565 73.6188L156.938 73.7189C156.638 74.4695 156.248 75.1701 155.72 75.7872C155.192 76.3877 154.48 76.9159 153.635 77.0271C153.218 77.0716 152.79 77.0549 152.39 76.877C151.984 76.7102 151.661 76.3488 151.517 75.9485C151.233 75.1312 151.367 74.3138 151.578 73.541L151.811 73.6633C151.55 73.958 151.267 74.2193 150.961 74.4584C150.655 74.6975 150.321 74.8976 149.96 75.0422C149.599 75.1868 149.204 75.259 148.815 75.2034C148.425 75.1478 148.075 74.9532 147.803 74.6919C148.103 74.9254 148.459 75.0811 148.826 75.1145C149.198 75.1423 149.565 75.0478 149.899 74.8921C150.56 74.5696 151.139 74.0581 151.606 73.491L151.978 73.0406L151.839 73.6133C151.667 74.3361 151.595 75.1478 151.85 75.8095C151.978 76.1375 152.223 76.3988 152.54 76.5267C152.857 76.6602 153.235 76.6768 153.591 76.6324C154.308 76.5323 154.936 76.0652 155.414 75.5037C155.904 74.9421 156.298 74.2638 156.582 73.5744L157.188 72.0898L156.96 73.6744C156.854 74.4028 156.843 75.2034 157.105 75.8706C157.238 76.1987 157.46 76.4878 157.772 76.6324C158.083 76.7769 158.467 76.7936 158.823 76.7213C159.545 76.5768 160.14 76.0319 160.613 75.4425C161.08 74.8476 161.453 74.1582 161.747 73.4409Z" fill="#263238"/>
<path d="M171.328 189.704C181.483 189.704 189.715 181.471 189.715 171.317C189.715 161.162 181.483 152.93 171.328 152.93C161.174 152.93 152.941 161.162 152.941 171.317C152.941 181.471 161.174 189.704 171.328 189.704Z" fill="#FFC727"/>
<path d="M173.219 159.957H169.443V182.67H173.219V159.957Z" fill="white"/>
<path d="M169.62 182.675L171.314 180.98L161.116 170.781L159.421 172.475L169.62 182.675Z" fill="white"/>
<path d="M183.22 172.484L181.525 170.789L171.327 180.989L173.022 182.683L183.22 172.484Z" fill="white"/>
</svg>
