<svg width="173" height="182" viewBox="0 0 173 182" fill="none" xmlns="http://www.w3.org/2000/svg">
<path fill-rule="evenodd" clip-rule="evenodd" d="M103.284 14.3836C103.4 14.4097 103.515 14.4358 103.631 14.4619C104.276 16.108 103.415 17.6043 103.1 19.1319C102.441 22.3418 102.33 22.1632 105.54 21.7486C112.215 20.8859 118.862 20.9975 125.539 22.0827C142.38 24.8205 155.676 33.3005 165.794 46.8205C172.305 55.5208 175.993 65.4835 177.78 76.1711C179.595 87.0141 179.475 97.8511 178.147 108.751C177.069 117.608 175.031 126.259 172.812 134.846C169.692 146.917 165.342 158.581 159.097 169.439C153.375 179.387 146.251 188.07 136.193 193.979C127.663 198.99 118.48 200.65 108.659 199.595C101.823 198.862 96.0287 195.776 90.3341 192.329C81.1617 186.777 72.4827 180.43 62.9991 175.376C54.1206 170.646 44.8696 166.933 35.0355 164.681C27.9547 163.059 21.8516 159.754 17.5209 153.694C14.1949 149.04 12.575 143.738 11.8971 138.149C11.0769 131.391 11.5933 124.696 12.9501 118.013C17.0998 97.569 26.6302 79.7743 39.3785 63.5127C46.1407 54.8862 53.8204 47.1908 62.4779 40.4751C66.6976 37.2018 71.1175 34.2071 75.8685 31.7704C76.9336 31.2241 76.1055 30.5456 76.4905 30.0636C77.7638 29.6441 78.9316 30.25 80.1354 30.4634C81.1826 30.6492 82.2136 30.9242 83.2529 31.1559C86.0326 31.776 86.7288 31.1605 86.531 28.252C86.5195 28.0788 86.4491 27.9083 86.4112 27.7359C86.287 26.6663 87.1793 26.5196 87.8459 26.2417C89.8603 25.4016 91.9353 24.737 94.0458 24.1753C95.0309 23.9124 96.1866 23.8957 96.7101 22.7395C97.555 22.6263 98.3574 22.8735 99.1613 23.0472C100.175 23.2658 100.724 22.8904 100.963 21.897C101.392 20.1161 101.764 18.3217 102.194 16.5415C102.389 15.7389 102.525 14.9021 103.284 14.3836Z" fill="#002354"/>
<path fill-rule="evenodd" clip-rule="evenodd" d="M96.2347 23.0048C96.9657 19.7662 97.6967 16.5276 98.4277 13.2891C100.047 13.6546 101.666 14.0201 103.285 14.3855C102.662 17.1398 101.995 19.8856 101.437 22.6529C101.216 23.7523 100.812 24.1895 99.663 23.8389C98.5397 23.4968 97.3794 23.2777 96.2347 23.0048Z" fill="#A3AEC0"/>
<path fill-rule="evenodd" clip-rule="evenodd" d="M119.122 114.334C117.955 119.487 116.789 124.639 115.623 129.792C115.671 130.881 114.701 131.094 114.054 131.506C107.614 135.611 101.18 139.727 94.672 143.72C93.2419 144.597 92.2469 145.964 90.7596 146.719C87.0235 145.875 83.2875 145.032 79.5512 144.19C78.8024 143.193 79.8426 141.994 79.176 140.993C78.5677 140.285 77.689 140.252 76.883 140.069C67.7663 138.003 58.6457 135.953 49.5283 133.887C46.7379 133.255 46.0906 132.487 45.8615 129.637C45.75 128.25 45.8975 126.888 46.2031 125.534C50.7928 105.192 55.385 84.8513 59.9765 64.5096C60.3508 62.8513 60.9506 61.3059 61.9926 59.944C63.5994 57.8436 64.3744 57.649 66.8965 58.7546C67.5656 59.4586 67.3197 60.3326 67.3036 61.1492C67.2092 65.9099 69.552 69.261 74.1911 70.3829C83.0459 72.5243 91.9509 74.4546 100.844 76.4315C103.863 77.1024 106.51 76.1083 109.028 74.5668C110.365 74.3835 111.6 74.9064 112.878 75.1319C115.589 75.6103 117.121 74.8885 118.495 72.4915C118.866 71.8441 119.054 71.0156 119.951 70.8102C122.336 71.5074 123.239 73.4116 123.744 75.5774C124.091 77.0664 123.774 78.5463 123.442 80.0138C121.213 89.8693 118.989 99.726 116.766 109.583C116.115 112.467 116.116 112.467 118.621 113.833C118.834 113.95 118.995 114.128 119.122 114.334Z" fill="white"/>
<path fill-rule="evenodd" clip-rule="evenodd" d="M109.231 74.8888C106.422 77.1766 103.301 77.6179 99.8047 76.7908C91.8333 74.9055 83.8667 72.9596 75.8248 71.4194C69.9692 70.2985 65.5179 66.5861 66.9553 59.0716C64.1783 57.9335 61.2419 57.9138 58.356 58.1761C56.3175 58.3615 54.9448 59.7934 54.2185 61.7423C54.0718 62.1353 53.9717 62.5437 53.8793 62.9529C49.2528 83.4038 44.6387 103.857 40.0279 124.31C39.975 124.544 39.9273 124.779 39.8874 125.015C39.4249 127.759 40.4927 130.1 43.0085 131.246C44.8436 132.082 46.7254 132.892 48.7058 133.343C58.6344 135.608 68.5732 137.833 78.5021 140.096C79.1071 140.234 79.8486 140.106 80.2727 140.762C80.0321 141.904 79.7918 143.045 79.5505 144.188C79.4851 144.354 79.4013 144.516 79.3566 144.688C78.5074 148.011 78.5084 148.012 75.2288 147.271C64.5263 144.856 53.8212 142.447 43.1204 140.022C34.4381 138.053 29.8844 130.914 31.8333 122.239C36.3932 101.939 40.974 81.6444 45.5759 61.3547C47.5433 52.6824 54.7169 48.2034 63.407 50.1463C64.2257 50.3296 65.0607 50.4625 65.8597 50.7112C67.5611 51.2409 68.9524 51.6341 69.627 49.1555C70.0686 47.5346 71.7336 46.9332 73.4565 47.2326C74.9317 47.4893 76.4007 47.813 77.8425 48.2132C78.7696 48.4702 79.3014 48.3201 79.8889 47.4677C83.3612 42.4318 89.1146 40.1426 94.7467 41.4512C100.362 42.7555 104.579 47.2717 105.482 53.1623C105.657 54.311 106.138 54.6429 107.123 54.8164C108.42 55.0453 109.705 55.358 110.984 55.6791C113.29 56.2577 114.459 57.8918 114 60.1874C113.778 61.2966 114.046 61.6031 115.092 61.843C117.655 62.4314 120.287 62.7565 122.726 63.8521C128.585 66.4849 132.079 72.9461 130.719 79.1994C128.211 90.7411 125.541 102.248 122.981 113.779C122.755 114.796 122.371 115.045 121.406 114.75C120.67 114.525 119.884 114.465 119.121 114.332C119.068 114.303 119.018 114.269 118.964 114.244C117.82 113.734 115.948 114.11 115.541 113.116C115.125 112.1 115.858 110.595 116.146 109.316C118.445 99.0862 120.768 88.8622 123.061 78.6314C123.847 75.1255 122.645 72.4703 119.681 70.9895C117.844 71.1716 116.204 70.3054 114.467 69.9617C113.097 69.6909 112.372 69.9159 111.986 71.3694C111.586 72.8791 110.879 74.2897 109.231 74.8888Z" fill="black"/>
<path fill-rule="evenodd" clip-rule="evenodd" d="M90.7596 146.712C91.3841 145.356 92.475 144.499 93.7171 143.716C101.036 139.099 108.325 134.435 115.623 129.786C122.929 125.209 130.24 120.639 137.536 116.049C139.229 114.983 140.978 114.067 143.007 113.951C145.733 113.796 147.947 114.877 149.46 117.129C151.265 119.812 153.031 122.532 154.644 125.334C157.185 129.754 155.799 134.747 151.277 137.614C137.915 146.085 124.458 154.408 111.2 163.04C107.27 165.599 103.462 167.213 98.6866 166.477C95.51 165.989 92.2414 166.118 89.0173 165.919C85.3736 165.693 83.9198 163.208 85.3694 159.813C87.1081 155.742 88.8193 151.66 90.5347 147.578C90.6485 147.305 90.6865 147.001 90.7596 146.712Z" fill="black"/>
<path fill-rule="evenodd" clip-rule="evenodd" d="M153.791 100.818C149.6 99.8776 146.977 95.7449 147.921 91.5685C148.806 87.6457 152.967 85.0919 157.016 85.9875C161.212 86.9161 163.865 90.8974 162.978 94.938C162.037 99.2189 158.047 101.772 153.791 100.818Z" fill="#A3AEC0"/>
<path fill-rule="evenodd" clip-rule="evenodd" d="M76.4066 30.164C76.6645 29.0106 76.9825 27.8668 77.1633 26.7018C77.336 25.5879 77.868 25.4153 78.8835 25.6615C81.4092 26.2744 83.957 26.7936 86.4959 27.3501C87.5409 27.7027 87.3042 28.4822 87.1241 29.2413C86.2052 33.1206 86.8036 32.5395 83.2743 31.7847C80.9746 31.2928 78.695 30.7078 76.4066 30.164Z" fill="#A4AFC1"/>
<path fill-rule="evenodd" clip-rule="evenodd" d="M110.88 32.8891C111.971 33.1354 113.053 33.455 114.159 33.6092C115.439 33.7882 115.625 34.4016 115.331 35.5566C114.333 39.4809 115.055 38.8878 111.316 38.1124C109.528 37.7413 107.756 37.2931 105.968 36.9174C105.192 36.7542 104.925 36.4208 105.036 35.5755C105.547 31.6819 105.52 31.6784 109.328 32.5377C109.846 32.6551 110.362 32.7718 110.88 32.8891Z" fill="#A4AFC0"/>
<path fill-rule="evenodd" clip-rule="evenodd" d="M80.2718 140.762C79.588 140.552 78.9142 140.298 78.2193 140.139C67.2249 137.64 56.2278 135.151 45.2309 132.66C40.1392 131.506 38.3101 128.662 39.4446 123.633C43.9839 103.508 48.5256 83.3824 53.073 63.258C54.1671 58.4149 57.0915 56.5283 61.9013 57.674C63.5968 58.0773 65.4303 58.0351 66.9537 59.0722C63.7757 58.4336 62.0909 59.5501 60.9725 63.0508C60.8452 63.4492 60.7747 63.8662 60.6823 64.2754C56.0365 84.8578 51.3888 105.44 46.7513 126.025C46.5942 126.72 46.4423 127.437 46.438 128.145C46.4144 132.367 46.6734 132.673 50.7662 133.597C60.0047 135.683 69.2458 137.761 78.4783 139.871C79.1185 140.016 79.9904 139.838 80.2718 140.762Z" fill="#D4DAE0"/>
<path fill-rule="evenodd" clip-rule="evenodd" d="M77.3153 118.908C69.9462 117.245 62.5867 115.539 55.2005 113.954C53.7794 113.649 53.4809 113.143 53.8904 111.817C54.3318 110.389 54.6566 108.912 54.8806 107.434C55.0628 106.23 55.5496 106.042 56.6842 106.306C64.3934 108.095 72.1188 109.815 79.839 111.557C86.9154 113.155 93.9844 114.79 101.076 116.317C102.423 116.607 102.72 117.083 102.322 118.36C101.877 119.787 101.547 121.263 101.332 122.742C101.144 124.03 100.62 124.206 99.4163 123.925C92.0601 122.207 84.6844 120.571 77.3153 118.908Z" fill="#010101"/>
<path fill-rule="evenodd" clip-rule="evenodd" d="M84.0887 88.9103C76.662 87.2339 69.2419 85.5266 61.8024 83.9113C60.5604 83.6413 60.2504 83.221 60.6192 82.0142C61.055 80.5848 61.4048 79.1114 61.6045 77.6317C61.7893 76.2637 62.3113 76.0785 63.6087 76.3777C75.4085 79.0982 87.2271 81.7418 99.0392 84.408C102.08 85.0945 105.113 85.8179 108.166 86.446C109.154 86.6488 109.451 86.9934 109.168 88.0021C108.731 89.5586 108.35 91.1405 108.105 92.7375C107.908 94.0156 107.388 94.2052 106.187 93.9254C98.8319 92.21 91.4568 90.5734 84.0887 88.9103Z" fill="black"/>
<path fill-rule="evenodd" clip-rule="evenodd" d="M80.6555 103.871C73.4063 102.234 66.1713 100.528 58.8972 99.011C57.1241 98.6418 56.8185 98.0183 57.3598 96.4336C57.8027 95.1362 58.0664 93.7649 58.2758 92.406C58.443 91.3229 58.8241 91.0664 59.9257 91.3372C63.7075 92.2676 67.5187 93.0811 71.3193 93.939C82.2517 96.4066 93.178 98.899 104.123 101.312C105.55 101.627 106.23 101.962 105.664 103.601C105.062 105.341 105.301 107.943 104.159 108.771C102.85 109.721 100.571 108.331 98.7246 107.93C92.6922 106.618 86.6767 105.23 80.6555 103.871Z" fill="black"/>
<path fill-rule="evenodd" clip-rule="evenodd" d="M109.23 74.8889C110.497 73.4327 111.544 71.8607 111.86 69.9024C111.945 69.3779 112.141 68.9577 112.79 69.1401C115.08 69.7834 117.516 69.8788 119.681 70.9902C118.332 75.265 116.29 76.4717 112.036 75.5143C111.101 75.3037 110.165 75.097 109.23 74.8889Z" fill="#D3D9DF"/>
<path fill-rule="evenodd" clip-rule="evenodd" d="M83.4306 56.4144C84.0458 55.8821 84.6854 55.3721 85.0699 54.6278C85.3631 53.5732 86.0459 53.2377 87.0997 53.4564C88.3297 53.7119 89.5631 53.9608 90.7786 54.274C91.8838 54.5589 92.5379 54.242 93.0819 53.2032C93.6686 52.0839 94.0572 50.696 95.579 50.3605C97.6127 51.8026 98.177 53.8543 97.9058 56.1937C97.5523 59.2486 98.4922 60.6451 101.494 61.3518C105.744 62.3522 105.744 62.3522 104.794 66.5582C104.675 67.0844 104.55 67.6093 104.435 68.1364C104.203 69.2053 103.569 69.6763 102.479 69.4258C95.5311 67.828 88.5843 66.2251 81.6372 64.6235C81.2355 61.6687 81.9325 58.9536 83.4306 56.4144Z" fill="#FFCC41"/>
<path fill-rule="evenodd" clip-rule="evenodd" d="M83.4294 56.415C82.8315 59.1511 82.2335 61.8876 81.6356 64.6236C79.7093 64.2183 77.7855 63.8018 75.856 63.4105C74.709 63.1777 74.2091 62.5738 74.5035 61.3743C74.9305 59.6349 74.8095 57.4422 75.8492 56.2539C77.1098 54.8129 79.0888 56.5782 80.7887 56.7027C81.7171 56.7705 82.5587 56.5821 83.4294 56.415Z" fill="#E3B126"/>
<path fill-rule="evenodd" clip-rule="evenodd" d="M95.5764 50.3555C94.6782 51.3966 93.7504 52.5078 93.4045 53.7961C92.9919 55.3296 92.2053 55.248 91.0474 54.935C89.7277 54.578 88.3639 54.3814 87.0538 53.9967C86.1849 53.7415 85.5728 53.9162 85.0673 54.6233C86.4569 49.8662 89.7069 47.8626 93.8196 49.2278C94.5016 49.4541 95.1585 49.718 95.5764 50.3555Z" fill="#E3B126"/>
<path fill-rule="evenodd" clip-rule="evenodd" d="M145.671 125.536C146.326 126.534 146.964 127.544 147.642 128.527C148.483 129.746 148.148 130.584 146.931 131.314C144.881 132.546 142.879 133.857 140.856 135.134C128.823 142.737 116.79 150.341 104.752 157.939C104.253 158.254 103.714 158.51 103.195 158.792C101.986 158.818 102.145 157.95 102.397 157.32C103.289 155.101 104.145 152.863 105.186 150.707C105.562 149.927 106.273 149.448 106.988 148.995C119.134 141.317 131.281 133.638 143.445 125.988C144.086 125.585 144.751 124.779 145.671 125.536Z" fill="#FFCC41"/>
<path fill-rule="evenodd" clip-rule="evenodd" d="M145.671 125.536C144.858 125.406 144.333 125.985 143.744 126.357C131.846 133.859 119.967 141.391 108.051 148.864C106.517 149.826 105.355 150.877 104.83 152.704C104.39 154.234 103.552 155.646 102.921 157.123C102.668 157.712 102.294 158.371 103.195 158.793C100.51 159.034 97.8457 158.585 95.1699 158.558C94.3781 158.55 94.4116 158.133 94.6219 157.631C95.5949 155.313 96.595 153.005 97.5734 150.689C97.8326 150.075 98.4138 149.856 98.9102 149.543C113.105 140.565 127.317 131.612 141.488 122.596C142.817 121.75 143.63 121.629 144.32 123.217C144.675 124.032 145.214 124.765 145.671 125.536Z" fill="#E3B026"/>
<path fill-rule="evenodd" clip-rule="evenodd" d="M154.889 95.8692C153.51 95.5727 152.78 94.365 153.079 92.8752C153.375 91.4034 154.474 90.6669 155.96 90.9447C157.295 91.1948 158.301 92.7376 157.973 94.0329C157.662 95.2608 156.177 96.1462 154.889 95.8692Z" fill="white"/>
</svg>
