<svg width="27" height="27" viewBox="0 0 27 27" fill="none" xmlns="http://www.w3.org/2000/svg">
<path d="M11.3601 0.585409L1.36006 8.00541C0.499488 8.63482 -0.0064422 9.63924 6.19568e-05 10.7054V24.2254C0.0109535 25.712 1.21343 26.9145 2.70006 26.9254H9.00006V20.0054C9.00006 17.7079 10.8626 15.8454 13.1601 15.8454C15.4576 15.8454 17.3201 17.7079 17.3201 20.0054V26.9254H23.5401C24.2508 26.9307 24.9346 26.6535 25.441 26.1546C25.9473 25.6558 26.2348 24.9762 26.2401 24.2654V10.7054C26.2229 9.64028 25.7133 8.64319 24.8601 8.00541L14.9601 0.585409C13.887 -0.195136 12.4331 -0.195136 11.3601 0.585409Z" fill="white"/>
</svg>
