<svg width="36" height="36" viewBox="0 0 36 36" fill="none" xmlns="http://www.w3.org/2000/svg">
<path d="M4.5 24.75H2.25V4.5C2.2506 3.90345 2.48784 3.3315 2.90967 2.90967C3.3315 2.48784 3.90345 2.2506 4.5 2.25H24.75V4.5H4.5V24.75Z" fill="#393939"/>
<path d="M23.625 19.125C24.2925 19.125 24.945 18.9271 25.5 18.5562C26.0551 18.1854 26.4876 17.6583 26.7431 17.0416C26.9985 16.4249 27.0654 15.7463 26.9351 15.0916C26.8049 14.4369 26.4835 13.8355 26.0115 13.3635C25.5395 12.8915 24.9381 12.5701 24.2834 12.4399C23.6287 12.3096 22.9501 12.3765 22.3334 12.6319C21.7167 12.8874 21.1896 13.3199 20.8188 13.875C20.4479 14.43 20.25 15.0825 20.25 15.75C20.2509 16.6448 20.6068 17.5028 21.2395 18.1355C21.8722 18.7682 22.7302 19.1241 23.625 19.125ZM23.625 14.625C23.8475 14.625 24.065 14.691 24.25 14.8146C24.435 14.9382 24.5792 15.1139 24.6644 15.3195C24.7495 15.5251 24.7718 15.7513 24.7284 15.9695C24.685 16.1877 24.5778 16.3882 24.4205 16.5455C24.2632 16.7028 24.0627 16.81 23.8445 16.8534C23.6262 16.8968 23.4 16.8745 23.1945 16.7894C22.9889 16.7042 22.8132 16.56 22.6896 16.375C22.566 16.19 22.5 15.9725 22.5 15.75C22.5 15.4516 22.6185 15.1655 22.8295 14.9545C23.0405 14.7435 23.3266 14.625 23.625 14.625Z" fill="#393939"/>
<path d="M31.5 7.875H10.125C9.52845 7.8756 8.9565 8.11284 8.53467 8.53467C8.11284 8.9565 7.8756 9.52845 7.875 10.125V31.5C7.8756 32.0966 8.11284 32.6685 8.53467 33.0903C8.9565 33.5122 9.52845 33.7494 10.125 33.75H31.5C32.0966 33.7494 32.6685 33.5122 33.0903 33.0903C33.5122 32.6685 33.7494 32.0966 33.75 31.5V10.125C33.7494 9.52845 33.5122 8.9565 33.0903 8.53467C32.6685 8.11284 32.0966 7.8756 31.5 7.875ZM31.5 31.5H10.125V24.75L14.625 20.2534L20.9093 26.5376C21.3312 26.9594 21.9034 27.1964 22.5 27.1964C23.0966 27.1964 23.6688 26.9594 24.0907 26.5376L25.875 24.7534L31.5 30.375V31.5ZM31.5 27.1935L27.4657 23.1593C27.0438 22.7374 26.4716 22.5005 25.875 22.5005C25.2784 22.5005 24.7062 22.7374 24.2843 23.1593L22.5 24.9435L16.2157 18.6593C15.7938 18.2374 15.2216 18.0005 14.625 18.0005C14.0284 18.0005 13.4562 18.2374 13.0343 18.6593L10.125 21.5685V10.125H31.5V27.1935Z" fill="#393939"/>
</svg>
