<svg xmlns="http://www.w3.org/2000/svg" width="20" height="24" fill="#002e6d" xmlns:v="https://vecta.io/nano"><path d="M12.168 20.789a2.53 2.53 0 1 1-5.054.075 2.59 2.59 0 0 1 .209-1.045l4.591-.075a2.43 2.43 0 0 1 .254 1.045zM2.777 9.599c.06-3.217 1.702-5.606 4.068-6.614a3.3 3.3 0 0 1-.052-.396 2.531 2.531 0 1 1 5.061-.082 2.24 2.24 0 0 1-.045.388 7.42 7.42 0 0 1 4.479 6.554s.075 5.084 1.986 6.293c.06 0 1.157.522 1.157 1.493s-1.082 1.642-2.426 1.65l-14.534.142c-1.344 0-2.516-.747-2.456-1.598.094-.602.476-1.12 1.023-1.388 1.896-1.351 1.739-6.442 1.739-6.442z"/></svg>