<svg xmlns="http://www.w3.org/2000/svg" width="20" height="20" fill="#545454" fill-rule="evenodd" xmlns:v="https://vecta.io/nano"><path d="M3.03 3.03A9.83 9.83 0 0 1 10 .143 9.86 9.86 0 0 1 19.857 10 9.86 9.86 0 0 1 10 19.857V19l.001.857a9.83 9.83 0 0 1-6.972-2.888c-.334-.335-.334-.878.002-1.212s.878-.334 1.212.002c.755.757 1.652 1.357 2.64 1.766s2.047.619 3.116.618H10c4.497 0 8.143-3.646 8.143-8.143S14.497 1.857 10 1.857c-2.248 0-4.283.911-5.758 2.385a57.98 57.98 0 0 0-1.6 1.713l-.708.786-.215.24-.078.088L1 6.5.359 5.931l.08-.09.217-.243.716-.794c.554-.611 1.226-1.342 1.658-1.773zM1 6.5l-.641-.569c-.314.354-.282.896.072 1.21a.86.86 0 0 0 1.21-.072L1 6.5z"/><path d="M1 1.643c.473 0 .857.384.857.857v3.143H5c.473 0 .857.384.857.857s-.384.857-.857.857H1c-.473 0-.857-.384-.857-.857v-4c0-.473.384-.857.857-.857z"/></svg>