<svg xmlns="http://www.w3.org/2000/svg" width="27" height="24" fill="none" xmlns:v="https://vecta.io/nano"><path fill-rule="evenodd" d="M21.312.506h2.736a1.96 1.96 0 0 1 1.958 1.958v19.094a1.96 1.96 0 0 1-1.958 1.958H1.987C.896 23.502.015 22.621 0 21.53V2.464A1.96 1.96 0 0 1 1.958.506h2.736v1.181c.005 1.127.917 2.04 2.045 2.045h1.267c1.127-.005 2.04-.917 2.045-2.045V.506h5.904v1.181c.005 1.127.917 2.04 2.045 2.045h1.267c1.127-.005 2.04-.917 2.045-2.045V.506zm-9.634 17.366L13.68 15.9l4.507-4.478-1.958-1.987-4.522 4.522-1.901-1.901-1.987 1.958 1.901 1.872 1.958 1.987z" fill="#fff"/></svg>