<svg xmlns="http://www.w3.org/2000/svg" width="18" height="18" fill="none" xmlns:v="https://vecta.io/nano"><path fill-rule="evenodd" d="M8.782.667c4.475 0 8.115 3.64 8.115 8.115 0 2.111-.81 4.037-2.136 5.482l2.609 2.604c.244.244.245.639.001.883a.62.62 0 0 1-.442.184c-.159 0-.319-.061-.442-.182l-2.64-2.633c-1.389 1.112-3.15 1.778-5.064 1.778A8.13 8.13 0 0 1 .666 8.782C.666 4.307 4.307.667 8.782.667zm0 1.25c-3.786 0-6.866 3.079-6.866 6.865s3.08 6.866 6.866 6.866 6.865-3.08 6.865-6.866-3.08-6.865-6.865-6.865z" fill="#002e6d"/></svg>