<svg xmlns="http://www.w3.org/2000/svg" width="30" height="22" fill="none" xmlns:v="https://vecta.io/nano"><path d="M29.126.686c-.014-.022-.029-.044-.046-.064-.078-.095-.184-.162-.303-.192s-.245-.022-.359.024L.549 11.06c-.119.044-.22.125-.288.232s-.098.233-.087.36a.57.57 0 0 0 .465.517l7.62 1.481 1.635 7.139.006.041a.48.48 0 0 0 .046.128.53.53 0 0 0 .046.076c.023.035.052.064.076.093a.54.54 0 0 0 .267.14c.013.006.027.01.041.011.029 0 .064.006.093.006a.78.78 0 0 0 .116-.012.3.3 0 0 0 .058-.017.53.53 0 0 0 .11-.047h.006c.012-.012.029-.017.041-.029l7.992-5.617 4.519.854a.7.7 0 0 0 .11.006c.12.001.236-.036.334-.104s.172-.166.212-.279l5.207-14.842a.64.64 0 0 0 .035-.215c.002-.105-.027-.208-.083-.296zM13.943 13.702a.32.32 0 0 0-.087.11c-.01.005-.018.013-.023.023l-3.126 5.31-1.3-5.71 14.439-8.834-9.903 9.101z" fill="#13327c"/></svg>