<svg xmlns="http://www.w3.org/2000/svg" width="26" height="21" fill="none" xmlns:v="https://vecta.io/nano"><g clip-path="url(#A)"><path d="M9.1 10.4A5.2 5.2 0 1 0 9.1 0a5.2 5.2 0 1 0 0 10.4zm2.06 1.95H7.04A7.04 7.04 0 0 0 0 19.39a1.41 1.41 0 0 0 1.408 1.41H16.79a1.41 1.41 0 0 0 1.41-1.41c0-3.888-3.152-7.04-7.04-7.04zm8.304.65h-3c1.867 1.532 3.037 3.823 3.037 6.39 0 .52-.154.999-.406 1.41H24.7c.719 0 1.3-.585 1.3-1.337C26 15.909 23.091 13 19.463 13zm-1.913-2.6a4.55 4.55 0 1 0 0-9.1 4.51 4.51 0 0 0-2.711.914c.468.899.761 1.905.761 2.986 0 1.443-.485 2.768-1.283 3.848.824.832 1.966 1.352 3.233 1.352z" fill="#fff"/></g><defs><clipPath id="A"><path fill="#fff" d="M0 0h26v20.8H0z"/></clipPath></defs></svg>