<svg xmlns="http://www.w3.org/2000/svg" width="24" height="24" fill="#d72f2f" xmlns:v="https://vecta.io/nano"><path d="M12 0C5.405 0 0 5.405 0 12s5.405 12 12 12 12-5.405 12-12S18.595 0 12 0zM2.859 12A9.16 9.16 0 0 1 12 2.859c1.898 0 3.727.591 5.288 1.702L12 9.848l-7.439 7.439C3.45 15.727 2.859 13.898 2.859 12zM12 21.141c-1.898 0-3.727-.591-5.287-1.702L19.439 6.712c1.111 1.561 1.701 3.389 1.701 5.288A9.16 9.16 0 0 1 12 21.141z"/><path d="M24 12c0 6.595-5.405 12-12 12v-2.859A9.16 9.16 0 0 0 21.141 12c0-1.899-.591-3.727-1.702-5.287L12 14.152V9.848l5.288-5.288C15.727 3.45 13.898 2.859 12 2.859V0c6.595 0 12 5.405 12 12z"/></svg>