<svg xmlns="http://www.w3.org/2000/svg" width="30" height="24" fill="none" xmlns:v="https://vecta.io/nano"><path d="M7.064 4.349C9.141 2.731 11.803 1.5 15 1.5c3.788 0 6.82 1.727 9.028 3.778 2.194 2.034 3.661 4.43 4.355 6.145a1.49 1.49 0 0 1 0 1.153c-.628 1.514-1.889 3.647-3.745 5.55l4.931 3.863c.488.384.577 1.092.192 1.58s-1.092.577-1.58.192L.431 2.01C-.058 1.627-.144.92.24.431S1.33-.144 1.819.24l5.245 4.109zm3.394 2.659l4.233 3.319c.197-.398.309-.848.309-1.369 0-.497-.183-1.003-.394-1.439.131-.014.263-.061.394-.061a4.5 4.5 0 0 1 4.5 4.5c0 .684-.136 1.294-.417 1.847l1.852 1.416a6.76 6.76 0 0 0 .816-3.262c0-3.684-3.023-6.75-6.75-6.75-1.748 0-3.347.708-4.542 1.8zM15 22.5c-3.787 0-6.82-1.725-9.028-3.778-2.193-2.077-3.659-4.472-4.357-6.145a1.5 1.5 0 0 1 0-1.153c.447-1.073 1.211-2.461 2.28-3.853l4.421 3.483c-.042.309-.066.624-.066.905 0 3.769 3.023 6.792 6.75 6.792.877 0 1.716-.169 2.484-.473l3.431 2.7C19.214 21.895 17.241 22.5 15 22.5z" fill="#000"/></svg>