<svg xmlns="http://www.w3.org/2000/svg" width="31" height="24" fill="none" xmlns:v="https://vecta.io/nano"><path d="M14.979 6.879c.15-.016.3-.021.45-.021 2.839 0 5.143 2.255 5.143 5.143 0 2.839-2.303 5.143-5.143 5.143-2.887 0-5.143-2.304-5.143-5.143l.021-.45c.498.241 1.077.45 1.693.45 1.891 0 3.429-1.537 3.429-3.429 0-.616-.209-1.195-.45-1.693zm10.768-2.561c2.507 2.325 4.184 5.063 4.977 7.023.177.423.177.895 0 1.318-.793 1.913-2.47 4.65-4.977 7.023C23.223 22.029 19.757 24 15.429 24s-7.795-1.971-10.317-4.318C2.605 17.309.929 14.571.132 12.659a1.71 1.71 0 0 1 0-1.318c.797-1.961 2.473-4.698 4.98-7.023C7.634 1.974 11.1 0 15.429 0s7.795 1.974 10.318 4.318zm-10.318-.032A7.72 7.72 0 0 0 7.714 12a7.72 7.72 0 0 0 7.714 7.714A7.72 7.72 0 0 0 23.143 12a7.72 7.72 0 0 0-7.714-7.714z" fill="#393939"/></svg>