<svg xmlns="http://www.w3.org/2000/svg" width="20" height="24" fill="none" xmlns:v="https://vecta.io/nano"><path d="M9.84 0C6.142 3.875 0 3 0 3v10.5C0 19.688 9.84 24 9.84 24s9.84-4.312 9.84-10.5V3s-6.142.875-9.84-3z" fill="#0d69e7"/><path fill-rule="evenodd" d="M9.841 3.359c-2.614 2.79-6.96 2.161-6.96 2.161v7.56c0 4.454 6.96 7.559 6.96 7.559s6.96-3.105 6.96-7.56V5.52s-4.346.63-6.96-2.16z" fill="#55c6ff"/><path d="M8.985 15.84l-3.704-3.016.983-1.147 2.427 1.976 3.977-5.494 1.253.861-4.936 6.819z" fill="#fff"/></svg>